%TF.GenerationSoftware,KiCad,Pcbnew,8.0.4*%
%TF.CreationDate,2024-08-07T00:27:04-04:00*%
%TF.ProjectId,esp32c3-wled,65737033-3263-4332-9d77-6c65642e6b69,rev?*%
%TF.SameCoordinates,Original*%
%TF.FileFunction,Legend,Top*%
%TF.FilePolarity,Positive*%
%FSLAX46Y46*%
G04 Gerber Fmt 4.6, Leading zero omitted, Abs format (unit mm)*
G04 Created by KiCad (PCBNEW 8.0.4) date 2024-08-07 00:27:04*
%MOMM*%
%LPD*%
G01*
G04 APERTURE LIST*
G04 Aperture macros list*
%AMRoundRect*
0 Rectangle with rounded corners*
0 $1 Rounding radius*
0 $2 $3 $4 $5 $6 $7 $8 $9 X,Y pos of 4 corners*
0 Add a 4 corners polygon primitive as box body*
4,1,4,$2,$3,$4,$5,$6,$7,$8,$9,$2,$3,0*
0 Add four circle primitives for the rounded corners*
1,1,$1+$1,$2,$3*
1,1,$1+$1,$4,$5*
1,1,$1+$1,$6,$7*
1,1,$1+$1,$8,$9*
0 Add four rect primitives between the rounded corners*
20,1,$1+$1,$2,$3,$4,$5,0*
20,1,$1+$1,$4,$5,$6,$7,0*
20,1,$1+$1,$6,$7,$8,$9,0*
20,1,$1+$1,$8,$9,$2,$3,0*%
G04 Aperture macros list end*
%ADD10C,0.100000*%
%ADD11C,0.200000*%
%ADD12C,0.150000*%
%ADD13C,0.127000*%
%ADD14C,0.120000*%
%ADD15RoundRect,0.102000X0.952500X-3.000000X0.952500X3.000000X-0.952500X3.000000X-0.952500X-3.000000X0*%
%ADD16RoundRect,0.225000X-0.250000X0.225000X-0.250000X-0.225000X0.250000X-0.225000X0.250000X0.225000X0*%
%ADD17C,3.200000*%
%ADD18RoundRect,0.100000X0.100000X-0.225000X0.100000X0.225000X-0.100000X0.225000X-0.100000X-0.225000X0*%
%ADD19RoundRect,0.250000X1.500000X-0.250000X1.500000X0.250000X-1.500000X0.250000X-1.500000X-0.250000X0*%
%ADD20RoundRect,0.250001X1.449999X-0.499999X1.449999X0.499999X-1.449999X0.499999X-1.449999X-0.499999X0*%
%ADD21RoundRect,0.200000X0.275000X-0.200000X0.275000X0.200000X-0.275000X0.200000X-0.275000X-0.200000X0*%
%ADD22RoundRect,0.250000X1.000000X-1.950000X1.000000X1.950000X-1.000000X1.950000X-1.000000X-1.950000X0*%
G04 APERTURE END LIST*
D10*
X181428571Y-111920020D02*
X181357143Y-111884306D01*
X181357143Y-111884306D02*
X181250000Y-111884306D01*
X181250000Y-111884306D02*
X181142857Y-111920020D01*
X181142857Y-111920020D02*
X181071428Y-111991449D01*
X181071428Y-111991449D02*
X181035714Y-112062877D01*
X181035714Y-112062877D02*
X181000000Y-112205734D01*
X181000000Y-112205734D02*
X181000000Y-112312877D01*
X181000000Y-112312877D02*
X181035714Y-112455734D01*
X181035714Y-112455734D02*
X181071428Y-112527163D01*
X181071428Y-112527163D02*
X181142857Y-112598592D01*
X181142857Y-112598592D02*
X181250000Y-112634306D01*
X181250000Y-112634306D02*
X181321428Y-112634306D01*
X181321428Y-112634306D02*
X181428571Y-112598592D01*
X181428571Y-112598592D02*
X181464285Y-112562877D01*
X181464285Y-112562877D02*
X181464285Y-112312877D01*
X181464285Y-112312877D02*
X181321428Y-112312877D01*
X181785714Y-112634306D02*
X181785714Y-111884306D01*
X181785714Y-111884306D02*
X182214285Y-112634306D01*
X182214285Y-112634306D02*
X182214285Y-111884306D01*
X182571428Y-112634306D02*
X182571428Y-111884306D01*
X182571428Y-111884306D02*
X182749999Y-111884306D01*
X182749999Y-111884306D02*
X182857142Y-111920020D01*
X182857142Y-111920020D02*
X182928571Y-111991449D01*
X182928571Y-111991449D02*
X182964285Y-112062877D01*
X182964285Y-112062877D02*
X182999999Y-112205734D01*
X182999999Y-112205734D02*
X182999999Y-112312877D01*
X182999999Y-112312877D02*
X182964285Y-112455734D01*
X182964285Y-112455734D02*
X182928571Y-112527163D01*
X182928571Y-112527163D02*
X182857142Y-112598592D01*
X182857142Y-112598592D02*
X182749999Y-112634306D01*
X182749999Y-112634306D02*
X182571428Y-112634306D01*
X181035714Y-113556050D02*
X181607143Y-113556050D01*
X181321428Y-113841764D02*
X181321428Y-113270335D01*
X182321428Y-113091764D02*
X181964285Y-113091764D01*
X181964285Y-113091764D02*
X181928571Y-113448907D01*
X181928571Y-113448907D02*
X181964285Y-113413192D01*
X181964285Y-113413192D02*
X182035714Y-113377478D01*
X182035714Y-113377478D02*
X182214285Y-113377478D01*
X182214285Y-113377478D02*
X182285714Y-113413192D01*
X182285714Y-113413192D02*
X182321428Y-113448907D01*
X182321428Y-113448907D02*
X182357142Y-113520335D01*
X182357142Y-113520335D02*
X182357142Y-113698907D01*
X182357142Y-113698907D02*
X182321428Y-113770335D01*
X182321428Y-113770335D02*
X182285714Y-113806050D01*
X182285714Y-113806050D02*
X182214285Y-113841764D01*
X182214285Y-113841764D02*
X182035714Y-113841764D01*
X182035714Y-113841764D02*
X181964285Y-113806050D01*
X181964285Y-113806050D02*
X181928571Y-113770335D01*
X182571428Y-113091764D02*
X182821428Y-113841764D01*
X182821428Y-113841764D02*
X183071428Y-113091764D01*
X180910715Y-115049222D02*
X180910715Y-114299222D01*
X180910715Y-114299222D02*
X181089286Y-114299222D01*
X181089286Y-114299222D02*
X181196429Y-114334936D01*
X181196429Y-114334936D02*
X181267858Y-114406365D01*
X181267858Y-114406365D02*
X181303572Y-114477793D01*
X181303572Y-114477793D02*
X181339286Y-114620650D01*
X181339286Y-114620650D02*
X181339286Y-114727793D01*
X181339286Y-114727793D02*
X181303572Y-114870650D01*
X181303572Y-114870650D02*
X181267858Y-114942079D01*
X181267858Y-114942079D02*
X181196429Y-115013508D01*
X181196429Y-115013508D02*
X181089286Y-115049222D01*
X181089286Y-115049222D02*
X180910715Y-115049222D01*
X181982144Y-115049222D02*
X181982144Y-114656365D01*
X181982144Y-114656365D02*
X181946429Y-114584936D01*
X181946429Y-114584936D02*
X181875001Y-114549222D01*
X181875001Y-114549222D02*
X181732144Y-114549222D01*
X181732144Y-114549222D02*
X181660715Y-114584936D01*
X181982144Y-115013508D02*
X181910715Y-115049222D01*
X181910715Y-115049222D02*
X181732144Y-115049222D01*
X181732144Y-115049222D02*
X181660715Y-115013508D01*
X181660715Y-115013508D02*
X181625001Y-114942079D01*
X181625001Y-114942079D02*
X181625001Y-114870650D01*
X181625001Y-114870650D02*
X181660715Y-114799222D01*
X181660715Y-114799222D02*
X181732144Y-114763508D01*
X181732144Y-114763508D02*
X181910715Y-114763508D01*
X181910715Y-114763508D02*
X181982144Y-114727793D01*
X182232143Y-114549222D02*
X182517857Y-114549222D01*
X182339286Y-114299222D02*
X182339286Y-114942079D01*
X182339286Y-114942079D02*
X182375000Y-115013508D01*
X182375000Y-115013508D02*
X182446429Y-115049222D01*
X182446429Y-115049222D02*
X182517857Y-115049222D01*
X183089286Y-115049222D02*
X183089286Y-114656365D01*
X183089286Y-114656365D02*
X183053571Y-114584936D01*
X183053571Y-114584936D02*
X182982143Y-114549222D01*
X182982143Y-114549222D02*
X182839286Y-114549222D01*
X182839286Y-114549222D02*
X182767857Y-114584936D01*
X183089286Y-115013508D02*
X183017857Y-115049222D01*
X183017857Y-115049222D02*
X182839286Y-115049222D01*
X182839286Y-115049222D02*
X182767857Y-115013508D01*
X182767857Y-115013508D02*
X182732143Y-114942079D01*
X182732143Y-114942079D02*
X182732143Y-114870650D01*
X182732143Y-114870650D02*
X182767857Y-114799222D01*
X182767857Y-114799222D02*
X182839286Y-114763508D01*
X182839286Y-114763508D02*
X183017857Y-114763508D01*
X183017857Y-114763508D02*
X183089286Y-114727793D01*
D11*
G36*
X168614285Y-85699946D02*
G01*
X168614285Y-86147768D01*
X168595440Y-86157191D01*
X168452178Y-86157191D01*
X168392568Y-86127386D01*
X168367901Y-86102718D01*
X168338095Y-86043106D01*
X168338095Y-85804607D01*
X168367900Y-85744997D01*
X168392568Y-85720328D01*
X168452178Y-85690524D01*
X168595440Y-85690524D01*
X168614285Y-85699946D01*
G37*
G36*
X165559810Y-85720329D02*
G01*
X165584479Y-85744997D01*
X165614284Y-85804607D01*
X165614284Y-86043107D01*
X165584479Y-86102715D01*
X165559810Y-86127385D01*
X165500201Y-86157191D01*
X165356939Y-86157191D01*
X165338094Y-86147768D01*
X165338094Y-85699946D01*
X165356939Y-85690524D01*
X165500201Y-85690524D01*
X165559810Y-85720329D01*
G37*
G36*
X170020702Y-85712679D02*
G01*
X170038152Y-85747579D01*
X169766667Y-85801876D01*
X169766667Y-85756988D01*
X169788822Y-85712678D01*
X169833131Y-85690524D01*
X169976393Y-85690524D01*
X170020702Y-85712679D01*
G37*
G36*
X174416955Y-85386996D02*
G01*
X174441624Y-85411664D01*
X174477077Y-85482571D01*
X174519048Y-85650452D01*
X174519048Y-85863928D01*
X174477077Y-86031809D01*
X174441624Y-86102715D01*
X174416955Y-86127385D01*
X174357346Y-86157191D01*
X174309322Y-86157191D01*
X174249712Y-86127386D01*
X174225045Y-86102718D01*
X174189590Y-86031809D01*
X174147620Y-85863928D01*
X174147620Y-85650453D01*
X174189590Y-85482571D01*
X174225044Y-85411664D01*
X174249712Y-85386995D01*
X174309322Y-85357191D01*
X174357346Y-85357191D01*
X174416955Y-85386996D01*
G37*
G36*
X178512193Y-85386996D02*
G01*
X178536862Y-85411664D01*
X178572315Y-85482571D01*
X178614286Y-85650452D01*
X178614286Y-85863928D01*
X178572315Y-86031809D01*
X178536862Y-86102715D01*
X178512193Y-86127385D01*
X178452584Y-86157191D01*
X178404560Y-86157191D01*
X178344950Y-86127386D01*
X178320283Y-86102718D01*
X178284828Y-86031809D01*
X178242858Y-85863928D01*
X178242858Y-85650453D01*
X178284828Y-85482571D01*
X178320282Y-85411664D01*
X178344950Y-85386995D01*
X178404560Y-85357191D01*
X178452584Y-85357191D01*
X178512193Y-85386996D01*
G37*
G36*
X179512193Y-85815567D02*
G01*
X179536862Y-85840235D01*
X179566667Y-85899845D01*
X179566667Y-86043107D01*
X179536862Y-86102715D01*
X179512193Y-86127385D01*
X179452584Y-86157191D01*
X179309322Y-86157191D01*
X179249712Y-86127386D01*
X179225045Y-86102718D01*
X179195239Y-86043106D01*
X179195239Y-85899845D01*
X179225044Y-85840235D01*
X179249712Y-85815566D01*
X179309322Y-85785762D01*
X179452584Y-85785762D01*
X179512193Y-85815567D01*
G37*
G36*
X179512193Y-85386996D02*
G01*
X179536862Y-85411664D01*
X179566667Y-85471274D01*
X179566667Y-85471679D01*
X179536862Y-85531288D01*
X179512193Y-85555956D01*
X179452584Y-85585762D01*
X179309322Y-85585762D01*
X179249712Y-85555957D01*
X179225044Y-85531288D01*
X179195239Y-85471678D01*
X179195239Y-85471274D01*
X179225044Y-85411664D01*
X179249712Y-85386995D01*
X179309322Y-85357191D01*
X179452584Y-85357191D01*
X179512193Y-85386996D01*
G37*
G36*
X181655050Y-85386996D02*
G01*
X181679719Y-85411664D01*
X181715172Y-85482571D01*
X181757143Y-85650452D01*
X181757143Y-85863928D01*
X181715172Y-86031809D01*
X181679719Y-86102715D01*
X181655050Y-86127385D01*
X181595441Y-86157191D01*
X181547417Y-86157191D01*
X181487807Y-86127386D01*
X181463140Y-86102718D01*
X181427685Y-86031809D01*
X181385715Y-85863928D01*
X181385715Y-85650453D01*
X181427685Y-85482571D01*
X181463139Y-85411664D01*
X181487807Y-85386995D01*
X181547417Y-85357191D01*
X181595441Y-85357191D01*
X181655050Y-85386996D01*
G37*
G36*
X177303122Y-83782268D02*
G01*
X177370195Y-83849341D01*
X177405647Y-83920246D01*
X177447618Y-84088127D01*
X177447618Y-84206365D01*
X177405647Y-84374246D01*
X177370194Y-84445152D01*
X177303123Y-84512225D01*
X177198058Y-84547247D01*
X177076190Y-84547247D01*
X177076190Y-83747247D01*
X177198058Y-83747247D01*
X177303122Y-83782268D01*
G37*
G36*
X179160266Y-84258458D02*
G01*
X179179718Y-84277910D01*
X179209523Y-84337520D01*
X179209523Y-84433163D01*
X179179718Y-84492771D01*
X179155049Y-84517441D01*
X179095440Y-84547247D01*
X178838095Y-84547247D01*
X178838095Y-84223437D01*
X179055201Y-84223437D01*
X179160266Y-84258458D01*
G37*
G36*
X179107430Y-83777052D02*
G01*
X179132099Y-83801720D01*
X179161904Y-83861330D01*
X179161904Y-83909354D01*
X179132099Y-83968963D01*
X179107430Y-83993631D01*
X179047821Y-84023437D01*
X178838095Y-84023437D01*
X178838095Y-83747247D01*
X179047821Y-83747247D01*
X179107430Y-83777052D01*
G37*
G36*
X180059811Y-84110385D02*
G01*
X180084480Y-84135053D01*
X180114285Y-84194663D01*
X180114285Y-84433163D01*
X180084480Y-84492771D01*
X180059811Y-84517441D01*
X180000202Y-84547247D01*
X179904559Y-84547247D01*
X179844949Y-84517442D01*
X179820282Y-84492774D01*
X179790476Y-84433162D01*
X179790476Y-84194663D01*
X179820281Y-84135053D01*
X179844949Y-84110384D01*
X179904559Y-84080580D01*
X180000202Y-84080580D01*
X180059811Y-84110385D01*
G37*
G36*
X180971428Y-84537824D02*
G01*
X180952583Y-84547247D01*
X180761702Y-84547247D01*
X180717392Y-84525092D01*
X180695238Y-84480782D01*
X180695238Y-84432758D01*
X180717393Y-84388448D01*
X180761702Y-84366294D01*
X180971428Y-84366294D01*
X180971428Y-84537824D01*
G37*
G36*
X182495238Y-84090002D02*
G01*
X182495238Y-84537824D01*
X182476393Y-84547247D01*
X182333131Y-84547247D01*
X182273521Y-84517442D01*
X182248854Y-84492774D01*
X182219048Y-84433162D01*
X182219048Y-84194663D01*
X182248853Y-84135053D01*
X182273521Y-84110384D01*
X182333131Y-84080580D01*
X182476393Y-84080580D01*
X182495238Y-84090002D01*
G37*
G36*
X167678858Y-83777052D02*
G01*
X167703527Y-83801720D01*
X167733332Y-83861330D01*
X167733332Y-83956973D01*
X167703527Y-84016582D01*
X167678858Y-84041250D01*
X167619249Y-84071056D01*
X167361904Y-84071056D01*
X167361904Y-83747247D01*
X167619249Y-83747247D01*
X167678858Y-83777052D01*
G37*
G36*
X183020635Y-86801635D02*
G01*
X165026983Y-86801635D01*
X165026983Y-86578017D01*
X165948403Y-86578017D01*
X165951169Y-86616937D01*
X165968618Y-86651836D01*
X165998095Y-86677400D01*
X166035111Y-86689739D01*
X166074031Y-86686973D01*
X166092339Y-86679967D01*
X166187577Y-86632348D01*
X166195973Y-86627062D01*
X166198413Y-86626052D01*
X166201159Y-86623798D01*
X166204167Y-86621905D01*
X166205896Y-86619910D01*
X166213567Y-86613616D01*
X166261185Y-86565997D01*
X166273622Y-86550844D01*
X166273859Y-86550269D01*
X166274294Y-86549825D01*
X166283323Y-86532425D01*
X166378561Y-86294330D01*
X166379085Y-86292523D01*
X166379887Y-86290825D01*
X166617982Y-85624158D01*
X166622735Y-85605139D01*
X166622008Y-85590524D01*
X167566666Y-85590524D01*
X167566666Y-86257191D01*
X167568587Y-86276700D01*
X167583519Y-86312748D01*
X167611109Y-86340338D01*
X167647157Y-86355270D01*
X167686175Y-86355270D01*
X167722223Y-86340338D01*
X167749813Y-86312748D01*
X167764745Y-86276700D01*
X167766666Y-86257191D01*
X167766666Y-85804607D01*
X167778470Y-85781000D01*
X168138095Y-85781000D01*
X168138095Y-86066714D01*
X168140016Y-86086223D01*
X168141391Y-86089543D01*
X168141646Y-86093127D01*
X168148652Y-86111435D01*
X168196271Y-86206673D01*
X168201554Y-86215065D01*
X168202566Y-86217509D01*
X168204822Y-86220258D01*
X168206714Y-86223263D01*
X168208708Y-86224992D01*
X168215003Y-86232662D01*
X168262621Y-86280282D01*
X168270289Y-86286575D01*
X168272021Y-86288572D01*
X168275029Y-86290465D01*
X168277775Y-86292719D01*
X168280215Y-86293729D01*
X168288612Y-86299015D01*
X168383849Y-86346634D01*
X168402158Y-86353640D01*
X168405741Y-86353894D01*
X168409062Y-86355270D01*
X168428571Y-86357191D01*
X168614285Y-86357191D01*
X168614285Y-86376441D01*
X168584480Y-86436050D01*
X168559811Y-86460718D01*
X168500202Y-86490524D01*
X168404559Y-86490524D01*
X168330435Y-86453462D01*
X168312127Y-86446456D01*
X168273207Y-86443690D01*
X168236191Y-86456029D01*
X168206714Y-86481593D01*
X168189265Y-86516492D01*
X168186499Y-86555412D01*
X168198838Y-86592428D01*
X168224402Y-86621905D01*
X168240993Y-86632348D01*
X168336230Y-86679967D01*
X168354539Y-86686973D01*
X168358122Y-86687227D01*
X168361443Y-86688603D01*
X168380952Y-86690524D01*
X168523809Y-86690524D01*
X168543318Y-86688603D01*
X168546638Y-86687227D01*
X168550222Y-86686973D01*
X168568530Y-86679967D01*
X168663768Y-86632348D01*
X168672164Y-86627062D01*
X168674604Y-86626052D01*
X168677350Y-86623798D01*
X168680358Y-86621905D01*
X168682087Y-86619910D01*
X168689758Y-86613616D01*
X168737376Y-86565997D01*
X168743668Y-86558330D01*
X168745666Y-86556598D01*
X168747559Y-86553589D01*
X168749813Y-86550844D01*
X168750823Y-86548403D01*
X168756109Y-86540007D01*
X168803728Y-86444770D01*
X168810734Y-86426461D01*
X168810988Y-86422877D01*
X168812364Y-86419557D01*
X168814285Y-86400048D01*
X168814285Y-85590524D01*
X168812364Y-85571015D01*
X168797432Y-85534967D01*
X168769842Y-85507377D01*
X168733794Y-85492445D01*
X168694776Y-85492445D01*
X168668371Y-85503382D01*
X168663768Y-85501081D01*
X168645460Y-85494075D01*
X168641876Y-85493820D01*
X168638556Y-85492445D01*
X168619047Y-85490524D01*
X168428571Y-85490524D01*
X168409062Y-85492445D01*
X168405741Y-85493820D01*
X168402158Y-85494075D01*
X168383849Y-85501081D01*
X168288612Y-85548700D01*
X168280215Y-85553985D01*
X168277775Y-85554996D01*
X168275029Y-85557249D01*
X168272021Y-85559143D01*
X168270288Y-85561140D01*
X168262622Y-85567433D01*
X168215003Y-85615051D01*
X168208708Y-85622721D01*
X168206714Y-85624451D01*
X168204820Y-85627458D01*
X168202567Y-85630205D01*
X168201556Y-85632644D01*
X168196271Y-85641041D01*
X168148652Y-85736279D01*
X168141646Y-85754587D01*
X168141391Y-85758170D01*
X168140016Y-85761491D01*
X168138095Y-85781000D01*
X167778470Y-85781000D01*
X167796471Y-85744997D01*
X167821139Y-85720328D01*
X167880749Y-85690524D01*
X167952380Y-85690524D01*
X167971889Y-85688603D01*
X168007937Y-85673671D01*
X168035527Y-85646081D01*
X168050459Y-85610033D01*
X168050459Y-85571015D01*
X168035527Y-85534967D01*
X168007937Y-85507377D01*
X167971889Y-85492445D01*
X167952380Y-85490524D01*
X167857142Y-85490524D01*
X167837633Y-85492445D01*
X167834312Y-85493820D01*
X167830729Y-85494075D01*
X167812420Y-85501081D01*
X167748091Y-85533245D01*
X167722223Y-85507377D01*
X167686175Y-85492445D01*
X167647157Y-85492445D01*
X167611109Y-85507377D01*
X167583519Y-85534967D01*
X167568587Y-85571015D01*
X167566666Y-85590524D01*
X166622008Y-85590524D01*
X166620797Y-85566169D01*
X166604094Y-85530907D01*
X166575168Y-85504721D01*
X166538423Y-85491598D01*
X166499453Y-85493535D01*
X166464191Y-85510239D01*
X166438004Y-85539164D01*
X166429634Y-85556891D01*
X166285713Y-85959869D01*
X166141792Y-85556890D01*
X166133422Y-85539164D01*
X166107235Y-85510238D01*
X166071973Y-85493535D01*
X166033003Y-85491597D01*
X165996258Y-85504720D01*
X165967332Y-85530907D01*
X165950629Y-85566169D01*
X165948691Y-85605139D01*
X165953444Y-85624158D01*
X166178811Y-86255186D01*
X166105249Y-86439089D01*
X166083620Y-86460718D01*
X166002897Y-86501081D01*
X165986306Y-86511524D01*
X165960742Y-86541001D01*
X165948403Y-86578017D01*
X165026983Y-86578017D01*
X165026983Y-85257191D01*
X165138094Y-85257191D01*
X165138094Y-86257191D01*
X165140015Y-86276700D01*
X165154947Y-86312748D01*
X165182537Y-86340338D01*
X165218585Y-86355270D01*
X165257603Y-86355270D01*
X165284007Y-86344332D01*
X165288610Y-86346634D01*
X165306919Y-86353640D01*
X165310502Y-86353894D01*
X165313823Y-86355270D01*
X165333332Y-86357191D01*
X165523808Y-86357191D01*
X165543317Y-86355270D01*
X165546637Y-86353894D01*
X165550221Y-86353640D01*
X165568529Y-86346634D01*
X165663767Y-86299015D01*
X165672162Y-86293730D01*
X165674604Y-86292719D01*
X165677351Y-86290463D01*
X165680357Y-86288572D01*
X165682087Y-86286577D01*
X165689757Y-86280282D01*
X165737376Y-86232662D01*
X165743668Y-86224995D01*
X165745665Y-86223264D01*
X165747558Y-86220256D01*
X165749813Y-86217509D01*
X165750824Y-86215067D01*
X165756108Y-86206673D01*
X165803727Y-86111436D01*
X165810733Y-86093127D01*
X165810987Y-86089543D01*
X165812363Y-86086223D01*
X165814284Y-86066714D01*
X165814284Y-85781000D01*
X165812363Y-85761491D01*
X165810987Y-85758170D01*
X165810733Y-85754587D01*
X165803727Y-85736278D01*
X165756108Y-85641041D01*
X165750822Y-85632644D01*
X165749812Y-85630204D01*
X165747558Y-85627458D01*
X165745665Y-85624450D01*
X165743667Y-85622717D01*
X165737375Y-85615051D01*
X165689757Y-85567432D01*
X165682086Y-85561137D01*
X165680357Y-85559143D01*
X165677349Y-85557249D01*
X165674603Y-85554996D01*
X165672163Y-85553985D01*
X165663767Y-85548700D01*
X165568529Y-85501081D01*
X165550221Y-85494075D01*
X165546637Y-85493820D01*
X165543317Y-85492445D01*
X165523808Y-85490524D01*
X165338094Y-85490524D01*
X165338094Y-85257191D01*
X169090476Y-85257191D01*
X169090476Y-86114333D01*
X169092397Y-86133842D01*
X169093772Y-86137162D01*
X169094027Y-86140745D01*
X169101033Y-86159054D01*
X169148652Y-86254293D01*
X169150705Y-86257556D01*
X169151219Y-86259095D01*
X169152881Y-86261011D01*
X169159095Y-86270883D01*
X169168566Y-86279097D01*
X169176783Y-86288572D01*
X169186653Y-86294784D01*
X169188571Y-86296448D01*
X169190111Y-86296961D01*
X169193374Y-86299015D01*
X169288611Y-86346634D01*
X169306920Y-86353640D01*
X169345840Y-86356406D01*
X169382856Y-86344067D01*
X169412333Y-86318502D01*
X169429782Y-86283604D01*
X169432547Y-86244684D01*
X169420209Y-86207668D01*
X169394644Y-86178191D01*
X169378054Y-86167748D01*
X169312630Y-86135036D01*
X169290476Y-86090726D01*
X169290476Y-85733381D01*
X169566667Y-85733381D01*
X169566667Y-86114333D01*
X169568588Y-86133842D01*
X169569963Y-86137162D01*
X169570218Y-86140745D01*
X169577224Y-86159054D01*
X169624843Y-86254293D01*
X169626896Y-86257556D01*
X169627410Y-86259095D01*
X169629072Y-86261011D01*
X169635286Y-86270883D01*
X169644757Y-86279097D01*
X169652974Y-86288572D01*
X169662844Y-86294784D01*
X169664762Y-86296448D01*
X169666302Y-86296961D01*
X169669565Y-86299015D01*
X169764802Y-86346634D01*
X169783111Y-86353640D01*
X169786694Y-86353894D01*
X169790015Y-86355270D01*
X169809524Y-86357191D01*
X170000000Y-86357191D01*
X170019509Y-86355270D01*
X170022829Y-86353894D01*
X170026413Y-86353640D01*
X170044721Y-86346634D01*
X170139959Y-86299015D01*
X170156549Y-86288572D01*
X170182114Y-86259095D01*
X170194452Y-86222079D01*
X170191687Y-86183159D01*
X170174238Y-86148261D01*
X170144761Y-86122696D01*
X170107745Y-86110357D01*
X170068825Y-86113123D01*
X170050516Y-86120129D01*
X169976393Y-86157191D01*
X169833131Y-86157191D01*
X169788821Y-86135036D01*
X169766667Y-86090726D01*
X169766667Y-86005837D01*
X170162363Y-85926698D01*
X170162366Y-85926698D01*
X170162368Y-85926696D01*
X170162468Y-85926677D01*
X170181222Y-85920967D01*
X170189362Y-85915515D01*
X170198414Y-85911766D01*
X170205415Y-85904764D01*
X170213641Y-85899256D01*
X170219075Y-85891104D01*
X170226004Y-85884176D01*
X170229793Y-85875028D01*
X170235285Y-85866791D01*
X170237186Y-85857180D01*
X170240936Y-85848128D01*
X170242857Y-85828619D01*
X170242857Y-85733381D01*
X170240936Y-85713872D01*
X170239560Y-85710551D01*
X170239306Y-85706968D01*
X170232300Y-85688659D01*
X170184681Y-85593422D01*
X170182856Y-85590524D01*
X170471429Y-85590524D01*
X170471429Y-86257191D01*
X170473350Y-86276700D01*
X170488282Y-86312748D01*
X170515872Y-86340338D01*
X170551920Y-86355270D01*
X170590938Y-86355270D01*
X170626986Y-86340338D01*
X170654576Y-86312748D01*
X170669508Y-86276700D01*
X170671429Y-86257191D01*
X170671429Y-85727183D01*
X170678283Y-85720328D01*
X170737893Y-85690524D01*
X170833536Y-85690524D01*
X170877845Y-85712679D01*
X170900000Y-85756988D01*
X170900000Y-86257191D01*
X170901921Y-86276700D01*
X170916853Y-86312748D01*
X170944443Y-86340338D01*
X170980491Y-86355270D01*
X171019509Y-86355270D01*
X171055557Y-86340338D01*
X171083147Y-86312748D01*
X171098079Y-86276700D01*
X171100000Y-86257191D01*
X171100000Y-85733381D01*
X171098079Y-85713872D01*
X171096703Y-85710551D01*
X171096449Y-85706968D01*
X171089443Y-85688659D01*
X171041824Y-85593422D01*
X171039999Y-85590524D01*
X171376191Y-85590524D01*
X171376191Y-86257191D01*
X171378112Y-86276700D01*
X171393044Y-86312748D01*
X171420634Y-86340338D01*
X171456682Y-86355270D01*
X171495700Y-86355270D01*
X171531748Y-86340338D01*
X171559338Y-86312748D01*
X171574270Y-86276700D01*
X171576191Y-86257191D01*
X171576191Y-85727183D01*
X171583045Y-85720328D01*
X171642655Y-85690524D01*
X171738298Y-85690524D01*
X171782607Y-85712679D01*
X171804762Y-85756988D01*
X171804762Y-86257191D01*
X171806683Y-86276700D01*
X171821615Y-86312748D01*
X171849205Y-86340338D01*
X171885253Y-86355270D01*
X171924271Y-86355270D01*
X171960319Y-86340338D01*
X171987909Y-86312748D01*
X172002841Y-86276700D01*
X172004762Y-86257191D01*
X172004762Y-86237682D01*
X172949541Y-86237682D01*
X172949541Y-86276700D01*
X172964473Y-86312748D01*
X172992063Y-86340338D01*
X173028111Y-86355270D01*
X173047620Y-86357191D01*
X173666667Y-86357191D01*
X173686176Y-86355270D01*
X173722224Y-86340338D01*
X173749814Y-86312748D01*
X173764746Y-86276700D01*
X173764746Y-86237682D01*
X173749814Y-86201634D01*
X173722224Y-86174044D01*
X173686176Y-86159112D01*
X173666667Y-86157191D01*
X173289042Y-86157191D01*
X173689759Y-85756473D01*
X173702195Y-85741319D01*
X173703569Y-85738000D01*
X173705925Y-85735285D01*
X173713916Y-85717385D01*
X173740330Y-85638143D01*
X173947620Y-85638143D01*
X173947620Y-85876238D01*
X173947955Y-85879640D01*
X173947738Y-85881099D01*
X173948817Y-85888396D01*
X173949541Y-85895747D01*
X173950105Y-85897110D01*
X173950606Y-85900492D01*
X173998225Y-86090967D01*
X173998738Y-86092404D01*
X173998790Y-86093127D01*
X174001898Y-86101251D01*
X174004820Y-86109428D01*
X174005250Y-86110008D01*
X174005796Y-86111435D01*
X174053415Y-86206673D01*
X174058698Y-86215065D01*
X174059710Y-86217509D01*
X174061966Y-86220258D01*
X174063858Y-86223263D01*
X174065852Y-86224992D01*
X174072147Y-86232662D01*
X174119765Y-86280282D01*
X174127433Y-86286575D01*
X174129165Y-86288572D01*
X174132173Y-86290465D01*
X174134919Y-86292719D01*
X174137359Y-86293729D01*
X174145756Y-86299015D01*
X174240993Y-86346634D01*
X174259302Y-86353640D01*
X174262885Y-86353894D01*
X174266206Y-86355270D01*
X174285715Y-86357191D01*
X174380953Y-86357191D01*
X174400462Y-86355270D01*
X174403782Y-86353894D01*
X174407366Y-86353640D01*
X174425674Y-86346634D01*
X174520912Y-86299015D01*
X174529307Y-86293730D01*
X174531749Y-86292719D01*
X174534496Y-86290463D01*
X174537502Y-86288572D01*
X174539232Y-86286577D01*
X174546902Y-86280282D01*
X174589501Y-86237682D01*
X174854303Y-86237682D01*
X174854303Y-86276700D01*
X174869235Y-86312748D01*
X174896825Y-86340338D01*
X174932873Y-86355270D01*
X174952382Y-86357191D01*
X175571429Y-86357191D01*
X175590938Y-86355270D01*
X175626986Y-86340338D01*
X175654576Y-86312748D01*
X175669508Y-86276700D01*
X175669508Y-86237682D01*
X175654576Y-86201634D01*
X175626986Y-86174044D01*
X175590938Y-86159112D01*
X175571429Y-86157191D01*
X175193804Y-86157191D01*
X175439644Y-85911350D01*
X175853167Y-85911350D01*
X175854303Y-85927334D01*
X175854303Y-85943366D01*
X175855678Y-85946686D01*
X175855933Y-85950270D01*
X175863100Y-85964605D01*
X175869235Y-85979414D01*
X175871775Y-85981954D01*
X175873383Y-85985169D01*
X175885494Y-85995673D01*
X175896825Y-86007004D01*
X175900143Y-86008378D01*
X175902859Y-86010734D01*
X175918068Y-86015803D01*
X175932873Y-86021936D01*
X175937973Y-86022438D01*
X175939875Y-86023072D01*
X175942508Y-86022884D01*
X175952382Y-86023857D01*
X176328572Y-86023857D01*
X176328572Y-86257191D01*
X176330493Y-86276700D01*
X176345425Y-86312748D01*
X176373015Y-86340338D01*
X176409063Y-86355270D01*
X176448081Y-86355270D01*
X176484129Y-86340338D01*
X176511719Y-86312748D01*
X176526651Y-86276700D01*
X176528572Y-86257191D01*
X176528572Y-86023857D01*
X176571429Y-86023857D01*
X176590938Y-86021936D01*
X176626986Y-86007004D01*
X176654576Y-85979414D01*
X176669508Y-85943366D01*
X176669508Y-85904348D01*
X176654576Y-85868300D01*
X176643005Y-85856729D01*
X176854303Y-85856729D01*
X176854303Y-85895747D01*
X176869235Y-85931795D01*
X176896825Y-85959385D01*
X176932873Y-85974317D01*
X176952382Y-85976238D01*
X177714287Y-85976238D01*
X177733796Y-85974317D01*
X177769844Y-85959385D01*
X177797434Y-85931795D01*
X177812366Y-85895747D01*
X177812366Y-85856729D01*
X177797434Y-85820681D01*
X177769844Y-85793091D01*
X177733796Y-85778159D01*
X177714287Y-85776238D01*
X176952382Y-85776238D01*
X176932873Y-85778159D01*
X176896825Y-85793091D01*
X176869235Y-85820681D01*
X176854303Y-85856729D01*
X176643005Y-85856729D01*
X176626986Y-85840710D01*
X176590938Y-85825778D01*
X176571429Y-85823857D01*
X176528572Y-85823857D01*
X176528572Y-85638143D01*
X178042858Y-85638143D01*
X178042858Y-85876238D01*
X178043193Y-85879640D01*
X178042976Y-85881099D01*
X178044055Y-85888396D01*
X178044779Y-85895747D01*
X178045343Y-85897110D01*
X178045844Y-85900492D01*
X178093463Y-86090967D01*
X178093976Y-86092404D01*
X178094028Y-86093127D01*
X178097136Y-86101251D01*
X178100058Y-86109428D01*
X178100488Y-86110008D01*
X178101034Y-86111435D01*
X178148653Y-86206673D01*
X178153936Y-86215065D01*
X178154948Y-86217509D01*
X178157204Y-86220258D01*
X178159096Y-86223263D01*
X178161090Y-86224992D01*
X178167385Y-86232662D01*
X178215003Y-86280282D01*
X178222671Y-86286575D01*
X178224403Y-86288572D01*
X178227411Y-86290465D01*
X178230157Y-86292719D01*
X178232597Y-86293729D01*
X178240994Y-86299015D01*
X178336231Y-86346634D01*
X178354540Y-86353640D01*
X178358123Y-86353894D01*
X178361444Y-86355270D01*
X178380953Y-86357191D01*
X178476191Y-86357191D01*
X178495700Y-86355270D01*
X178499020Y-86353894D01*
X178502604Y-86353640D01*
X178520912Y-86346634D01*
X178616150Y-86299015D01*
X178624545Y-86293730D01*
X178626987Y-86292719D01*
X178629734Y-86290463D01*
X178632740Y-86288572D01*
X178634470Y-86286577D01*
X178642140Y-86280282D01*
X178689759Y-86232662D01*
X178696051Y-86224995D01*
X178698048Y-86223264D01*
X178699941Y-86220256D01*
X178702196Y-86217509D01*
X178703207Y-86215067D01*
X178708491Y-86206673D01*
X178756110Y-86111436D01*
X178756656Y-86110007D01*
X178757086Y-86109428D01*
X178760007Y-86101251D01*
X178763116Y-86093127D01*
X178763167Y-86092406D01*
X178763681Y-86090968D01*
X178811300Y-85900492D01*
X178811800Y-85897110D01*
X178812365Y-85895747D01*
X178813088Y-85888396D01*
X178814168Y-85881099D01*
X178813950Y-85879640D01*
X178814286Y-85876238D01*
X178814286Y-85638143D01*
X178813950Y-85634740D01*
X178814168Y-85633282D01*
X178813088Y-85625984D01*
X178812365Y-85618634D01*
X178811800Y-85617270D01*
X178811300Y-85613889D01*
X178769744Y-85447667D01*
X178995239Y-85447667D01*
X178995239Y-85495286D01*
X178997160Y-85514795D01*
X178998535Y-85518115D01*
X178998790Y-85521699D01*
X179005796Y-85540007D01*
X179053415Y-85635245D01*
X179058700Y-85643641D01*
X179059711Y-85646081D01*
X179061964Y-85648827D01*
X179063858Y-85651835D01*
X179065852Y-85653564D01*
X179072147Y-85661235D01*
X179096674Y-85685762D01*
X179072147Y-85710289D01*
X179065852Y-85717959D01*
X179063858Y-85719689D01*
X179061964Y-85722696D01*
X179059711Y-85725443D01*
X179058700Y-85727882D01*
X179053415Y-85736279D01*
X179005796Y-85831517D01*
X178998790Y-85849825D01*
X178998535Y-85853408D01*
X178997160Y-85856729D01*
X178995239Y-85876238D01*
X178995239Y-86066714D01*
X178997160Y-86086223D01*
X178998535Y-86089543D01*
X178998790Y-86093127D01*
X179005796Y-86111435D01*
X179053415Y-86206673D01*
X179058698Y-86215065D01*
X179059710Y-86217509D01*
X179061966Y-86220258D01*
X179063858Y-86223263D01*
X179065852Y-86224992D01*
X179072147Y-86232662D01*
X179119765Y-86280282D01*
X179127433Y-86286575D01*
X179129165Y-86288572D01*
X179132173Y-86290465D01*
X179134919Y-86292719D01*
X179137359Y-86293729D01*
X179145756Y-86299015D01*
X179240993Y-86346634D01*
X179259302Y-86353640D01*
X179262885Y-86353894D01*
X179266206Y-86355270D01*
X179285715Y-86357191D01*
X179476191Y-86357191D01*
X179495700Y-86355270D01*
X179499020Y-86353894D01*
X179502604Y-86353640D01*
X179520912Y-86346634D01*
X179616150Y-86299015D01*
X179624545Y-86293730D01*
X179626987Y-86292719D01*
X179629734Y-86290463D01*
X179632740Y-86288572D01*
X179634470Y-86286577D01*
X179642140Y-86280282D01*
X179689759Y-86232662D01*
X179696051Y-86224995D01*
X179698048Y-86223264D01*
X179699941Y-86220256D01*
X179702196Y-86217509D01*
X179703207Y-86215067D01*
X179708491Y-86206673D01*
X179756110Y-86111436D01*
X179763116Y-86093127D01*
X179763370Y-86089543D01*
X179764746Y-86086223D01*
X179766667Y-86066714D01*
X179766667Y-85876238D01*
X179764746Y-85856729D01*
X179997160Y-85856729D01*
X179997160Y-85895747D01*
X180012092Y-85931795D01*
X180039682Y-85959385D01*
X180075730Y-85974317D01*
X180095239Y-85976238D01*
X180857144Y-85976238D01*
X180876653Y-85974317D01*
X180912701Y-85959385D01*
X180940291Y-85931795D01*
X180955223Y-85895747D01*
X180955223Y-85856729D01*
X180940291Y-85820681D01*
X180912701Y-85793091D01*
X180876653Y-85778159D01*
X180857144Y-85776238D01*
X180095239Y-85776238D01*
X180075730Y-85778159D01*
X180039682Y-85793091D01*
X180012092Y-85820681D01*
X179997160Y-85856729D01*
X179764746Y-85856729D01*
X179763370Y-85853408D01*
X179763116Y-85849825D01*
X179756110Y-85831516D01*
X179708491Y-85736279D01*
X179703205Y-85727882D01*
X179702195Y-85725442D01*
X179699941Y-85722696D01*
X179698048Y-85719688D01*
X179696050Y-85717955D01*
X179689758Y-85710289D01*
X179665231Y-85685762D01*
X179689758Y-85661235D01*
X179696050Y-85653568D01*
X179698048Y-85651836D01*
X179699941Y-85648827D01*
X179702195Y-85646082D01*
X179703205Y-85643641D01*
X179706666Y-85638143D01*
X181185715Y-85638143D01*
X181185715Y-85876238D01*
X181186050Y-85879640D01*
X181185833Y-85881099D01*
X181186912Y-85888396D01*
X181187636Y-85895747D01*
X181188200Y-85897110D01*
X181188701Y-85900492D01*
X181236320Y-86090967D01*
X181236833Y-86092404D01*
X181236885Y-86093127D01*
X181239993Y-86101251D01*
X181242915Y-86109428D01*
X181243345Y-86110008D01*
X181243891Y-86111435D01*
X181291510Y-86206673D01*
X181296793Y-86215065D01*
X181297805Y-86217509D01*
X181300061Y-86220258D01*
X181301953Y-86223263D01*
X181303947Y-86224992D01*
X181310242Y-86232662D01*
X181357860Y-86280282D01*
X181365528Y-86286575D01*
X181367260Y-86288572D01*
X181370268Y-86290465D01*
X181373014Y-86292719D01*
X181375454Y-86293729D01*
X181383851Y-86299015D01*
X181479088Y-86346634D01*
X181497397Y-86353640D01*
X181500980Y-86353894D01*
X181504301Y-86355270D01*
X181523810Y-86357191D01*
X181619048Y-86357191D01*
X181638557Y-86355270D01*
X181641877Y-86353894D01*
X181645461Y-86353640D01*
X181663769Y-86346634D01*
X181759007Y-86299015D01*
X181767402Y-86293730D01*
X181769844Y-86292719D01*
X181772591Y-86290463D01*
X181775597Y-86288572D01*
X181777327Y-86286577D01*
X181784997Y-86280282D01*
X181827596Y-86237682D01*
X182092398Y-86237682D01*
X182092398Y-86276700D01*
X182107330Y-86312748D01*
X182134920Y-86340338D01*
X182170968Y-86355270D01*
X182190477Y-86357191D01*
X182809524Y-86357191D01*
X182829033Y-86355270D01*
X182865081Y-86340338D01*
X182892671Y-86312748D01*
X182907603Y-86276700D01*
X182907603Y-86237682D01*
X182892671Y-86201634D01*
X182865081Y-86174044D01*
X182829033Y-86159112D01*
X182809524Y-86157191D01*
X182431899Y-86157191D01*
X182832616Y-85756473D01*
X182845052Y-85741319D01*
X182846426Y-85738000D01*
X182848782Y-85735285D01*
X182856773Y-85717385D01*
X182904392Y-85574528D01*
X182906591Y-85564855D01*
X182907603Y-85562414D01*
X182907951Y-85558876D01*
X182908739Y-85555413D01*
X182908551Y-85552778D01*
X182909524Y-85542905D01*
X182909524Y-85447667D01*
X182907603Y-85428158D01*
X182906227Y-85424837D01*
X182905973Y-85421254D01*
X182898967Y-85402945D01*
X182851348Y-85307708D01*
X182846062Y-85299311D01*
X182845052Y-85296871D01*
X182842798Y-85294125D01*
X182840905Y-85291117D01*
X182838907Y-85289384D01*
X182832615Y-85281718D01*
X182784997Y-85234099D01*
X182777326Y-85227804D01*
X182775597Y-85225810D01*
X182772589Y-85223916D01*
X182769843Y-85221663D01*
X182767403Y-85220652D01*
X182759007Y-85215367D01*
X182663769Y-85167748D01*
X182645461Y-85160742D01*
X182641877Y-85160487D01*
X182638557Y-85159112D01*
X182619048Y-85157191D01*
X182380953Y-85157191D01*
X182361444Y-85159112D01*
X182358123Y-85160487D01*
X182354540Y-85160742D01*
X182336231Y-85167748D01*
X182240994Y-85215367D01*
X182232597Y-85220652D01*
X182230157Y-85221663D01*
X182227411Y-85223916D01*
X182224403Y-85225810D01*
X182222670Y-85227807D01*
X182215004Y-85234100D01*
X182167385Y-85281718D01*
X182154949Y-85296872D01*
X182140017Y-85332920D01*
X182140017Y-85371938D01*
X182154949Y-85407986D01*
X182182539Y-85435576D01*
X182218587Y-85450508D01*
X182257605Y-85450508D01*
X182293653Y-85435576D01*
X182308807Y-85423140D01*
X182344950Y-85386995D01*
X182404560Y-85357191D01*
X182595441Y-85357191D01*
X182655050Y-85386996D01*
X182679719Y-85411664D01*
X182709524Y-85471274D01*
X182709524Y-85526678D01*
X182674502Y-85631742D01*
X182119766Y-86186480D01*
X182107330Y-86201634D01*
X182092398Y-86237682D01*
X181827596Y-86237682D01*
X181832616Y-86232662D01*
X181838908Y-86224995D01*
X181840905Y-86223264D01*
X181842798Y-86220256D01*
X181845053Y-86217509D01*
X181846064Y-86215067D01*
X181851348Y-86206673D01*
X181898967Y-86111436D01*
X181899513Y-86110007D01*
X181899943Y-86109428D01*
X181902864Y-86101251D01*
X181905973Y-86093127D01*
X181906024Y-86092406D01*
X181906538Y-86090968D01*
X181954157Y-85900492D01*
X181954657Y-85897110D01*
X181955222Y-85895747D01*
X181955945Y-85888396D01*
X181957025Y-85881099D01*
X181956807Y-85879640D01*
X181957143Y-85876238D01*
X181957143Y-85638143D01*
X181956807Y-85634740D01*
X181957025Y-85633282D01*
X181955945Y-85625984D01*
X181955222Y-85618634D01*
X181954657Y-85617270D01*
X181954157Y-85613889D01*
X181906538Y-85423413D01*
X181906024Y-85421974D01*
X181905973Y-85421254D01*
X181902864Y-85413129D01*
X181899943Y-85404953D01*
X181899513Y-85404373D01*
X181898967Y-85402945D01*
X181851348Y-85307708D01*
X181846062Y-85299311D01*
X181845052Y-85296871D01*
X181842798Y-85294125D01*
X181840905Y-85291117D01*
X181838907Y-85289384D01*
X181832615Y-85281718D01*
X181784997Y-85234099D01*
X181777326Y-85227804D01*
X181775597Y-85225810D01*
X181772589Y-85223916D01*
X181769843Y-85221663D01*
X181767403Y-85220652D01*
X181759007Y-85215367D01*
X181663769Y-85167748D01*
X181645461Y-85160742D01*
X181641877Y-85160487D01*
X181638557Y-85159112D01*
X181619048Y-85157191D01*
X181523810Y-85157191D01*
X181504301Y-85159112D01*
X181500980Y-85160487D01*
X181497397Y-85160742D01*
X181479088Y-85167748D01*
X181383851Y-85215367D01*
X181375454Y-85220652D01*
X181373014Y-85221663D01*
X181370268Y-85223916D01*
X181367260Y-85225810D01*
X181365527Y-85227807D01*
X181357861Y-85234100D01*
X181310242Y-85281718D01*
X181303947Y-85289388D01*
X181301953Y-85291118D01*
X181300059Y-85294125D01*
X181297806Y-85296872D01*
X181296795Y-85299311D01*
X181291510Y-85307708D01*
X181243891Y-85402946D01*
X181243345Y-85404372D01*
X181242915Y-85404953D01*
X181239993Y-85413129D01*
X181236885Y-85421254D01*
X181236833Y-85421976D01*
X181236320Y-85423414D01*
X181188701Y-85613889D01*
X181188200Y-85617270D01*
X181187636Y-85618634D01*
X181186912Y-85625984D01*
X181185833Y-85633282D01*
X181186050Y-85634740D01*
X181185715Y-85638143D01*
X179706666Y-85638143D01*
X179708491Y-85635245D01*
X179756110Y-85540008D01*
X179763116Y-85521699D01*
X179763370Y-85518115D01*
X179764746Y-85514795D01*
X179766667Y-85495286D01*
X179766667Y-85447667D01*
X179764746Y-85428158D01*
X179763370Y-85424837D01*
X179763116Y-85421254D01*
X179756110Y-85402945D01*
X179708491Y-85307708D01*
X179703205Y-85299311D01*
X179702195Y-85296871D01*
X179699941Y-85294125D01*
X179698048Y-85291117D01*
X179696050Y-85289384D01*
X179689758Y-85281718D01*
X179642140Y-85234099D01*
X179634469Y-85227804D01*
X179632740Y-85225810D01*
X179629732Y-85223916D01*
X179626986Y-85221663D01*
X179624546Y-85220652D01*
X179616150Y-85215367D01*
X179520912Y-85167748D01*
X179502604Y-85160742D01*
X179499020Y-85160487D01*
X179495700Y-85159112D01*
X179476191Y-85157191D01*
X179285715Y-85157191D01*
X179266206Y-85159112D01*
X179262885Y-85160487D01*
X179259302Y-85160742D01*
X179240993Y-85167748D01*
X179145756Y-85215367D01*
X179137359Y-85220652D01*
X179134919Y-85221663D01*
X179132173Y-85223916D01*
X179129165Y-85225810D01*
X179127432Y-85227807D01*
X179119766Y-85234100D01*
X179072147Y-85281718D01*
X179065852Y-85289388D01*
X179063858Y-85291118D01*
X179061964Y-85294125D01*
X179059711Y-85296872D01*
X179058700Y-85299311D01*
X179053415Y-85307708D01*
X179005796Y-85402946D01*
X178998790Y-85421254D01*
X178998535Y-85424837D01*
X178997160Y-85428158D01*
X178995239Y-85447667D01*
X178769744Y-85447667D01*
X178763681Y-85423413D01*
X178763167Y-85421974D01*
X178763116Y-85421254D01*
X178760007Y-85413129D01*
X178757086Y-85404953D01*
X178756656Y-85404373D01*
X178756110Y-85402945D01*
X178708491Y-85307708D01*
X178703205Y-85299311D01*
X178702195Y-85296871D01*
X178699941Y-85294125D01*
X178698048Y-85291117D01*
X178696050Y-85289384D01*
X178689758Y-85281718D01*
X178642140Y-85234099D01*
X178634469Y-85227804D01*
X178632740Y-85225810D01*
X178629732Y-85223916D01*
X178626986Y-85221663D01*
X178624546Y-85220652D01*
X178616150Y-85215367D01*
X178520912Y-85167748D01*
X178502604Y-85160742D01*
X178499020Y-85160487D01*
X178495700Y-85159112D01*
X178476191Y-85157191D01*
X178380953Y-85157191D01*
X178361444Y-85159112D01*
X178358123Y-85160487D01*
X178354540Y-85160742D01*
X178336231Y-85167748D01*
X178240994Y-85215367D01*
X178232597Y-85220652D01*
X178230157Y-85221663D01*
X178227411Y-85223916D01*
X178224403Y-85225810D01*
X178222670Y-85227807D01*
X178215004Y-85234100D01*
X178167385Y-85281718D01*
X178161090Y-85289388D01*
X178159096Y-85291118D01*
X178157202Y-85294125D01*
X178154949Y-85296872D01*
X178153938Y-85299311D01*
X178148653Y-85307708D01*
X178101034Y-85402946D01*
X178100488Y-85404372D01*
X178100058Y-85404953D01*
X178097136Y-85413129D01*
X178094028Y-85421254D01*
X178093976Y-85421976D01*
X178093463Y-85423414D01*
X178045844Y-85613889D01*
X178045343Y-85617270D01*
X178044779Y-85618634D01*
X178044055Y-85625984D01*
X178042976Y-85633282D01*
X178043193Y-85634740D01*
X178042858Y-85638143D01*
X176528572Y-85638143D01*
X176528572Y-85590524D01*
X176526651Y-85571015D01*
X176511719Y-85534967D01*
X176484129Y-85507377D01*
X176448081Y-85492445D01*
X176409063Y-85492445D01*
X176373015Y-85507377D01*
X176345425Y-85534967D01*
X176330493Y-85571015D01*
X176328572Y-85590524D01*
X176328572Y-85823857D01*
X176091124Y-85823857D01*
X176285345Y-85241195D01*
X176289692Y-85222080D01*
X176286926Y-85183160D01*
X176269476Y-85148261D01*
X176240000Y-85122696D01*
X176202984Y-85110357D01*
X176164064Y-85113124D01*
X176129165Y-85130573D01*
X176103600Y-85160049D01*
X176095609Y-85177950D01*
X175857514Y-85892234D01*
X175855314Y-85901905D01*
X175854303Y-85904348D01*
X175854303Y-85906354D01*
X175853167Y-85911350D01*
X175439644Y-85911350D01*
X175594521Y-85756473D01*
X175606957Y-85741319D01*
X175608331Y-85738000D01*
X175610687Y-85735285D01*
X175618678Y-85717385D01*
X175666297Y-85574528D01*
X175668496Y-85564855D01*
X175669508Y-85562414D01*
X175669856Y-85558876D01*
X175670644Y-85555413D01*
X175670456Y-85552778D01*
X175671429Y-85542905D01*
X175671429Y-85447667D01*
X175669508Y-85428158D01*
X175668132Y-85424837D01*
X175667878Y-85421254D01*
X175660872Y-85402945D01*
X175613253Y-85307708D01*
X175607967Y-85299311D01*
X175606957Y-85296871D01*
X175604703Y-85294125D01*
X175602810Y-85291117D01*
X175600812Y-85289384D01*
X175594520Y-85281718D01*
X175546902Y-85234099D01*
X175539231Y-85227804D01*
X175537502Y-85225810D01*
X175534494Y-85223916D01*
X175531748Y-85221663D01*
X175529308Y-85220652D01*
X175520912Y-85215367D01*
X175425674Y-85167748D01*
X175407366Y-85160742D01*
X175403782Y-85160487D01*
X175400462Y-85159112D01*
X175380953Y-85157191D01*
X175142858Y-85157191D01*
X175123349Y-85159112D01*
X175120028Y-85160487D01*
X175116445Y-85160742D01*
X175098136Y-85167748D01*
X175002899Y-85215367D01*
X174994502Y-85220652D01*
X174992062Y-85221663D01*
X174989316Y-85223916D01*
X174986308Y-85225810D01*
X174984575Y-85227807D01*
X174976909Y-85234100D01*
X174929290Y-85281718D01*
X174916854Y-85296872D01*
X174901922Y-85332920D01*
X174901922Y-85371938D01*
X174916854Y-85407986D01*
X174944444Y-85435576D01*
X174980492Y-85450508D01*
X175019510Y-85450508D01*
X175055558Y-85435576D01*
X175070712Y-85423140D01*
X175106855Y-85386995D01*
X175166465Y-85357191D01*
X175357346Y-85357191D01*
X175416955Y-85386996D01*
X175441624Y-85411664D01*
X175471429Y-85471274D01*
X175471429Y-85526678D01*
X175436407Y-85631742D01*
X174881671Y-86186480D01*
X174869235Y-86201634D01*
X174854303Y-86237682D01*
X174589501Y-86237682D01*
X174594521Y-86232662D01*
X174600813Y-86224995D01*
X174602810Y-86223264D01*
X174604703Y-86220256D01*
X174606958Y-86217509D01*
X174607969Y-86215067D01*
X174613253Y-86206673D01*
X174660872Y-86111436D01*
X174661418Y-86110007D01*
X174661848Y-86109428D01*
X174664769Y-86101251D01*
X174667878Y-86093127D01*
X174667929Y-86092406D01*
X174668443Y-86090968D01*
X174716062Y-85900492D01*
X174716562Y-85897110D01*
X174717127Y-85895747D01*
X174717850Y-85888396D01*
X174718930Y-85881099D01*
X174718712Y-85879640D01*
X174719048Y-85876238D01*
X174719048Y-85638143D01*
X174718712Y-85634740D01*
X174718930Y-85633282D01*
X174717850Y-85625984D01*
X174717127Y-85618634D01*
X174716562Y-85617270D01*
X174716062Y-85613889D01*
X174668443Y-85423413D01*
X174667929Y-85421974D01*
X174667878Y-85421254D01*
X174664769Y-85413129D01*
X174661848Y-85404953D01*
X174661418Y-85404373D01*
X174660872Y-85402945D01*
X174613253Y-85307708D01*
X174607967Y-85299311D01*
X174606957Y-85296871D01*
X174604703Y-85294125D01*
X174602810Y-85291117D01*
X174600812Y-85289384D01*
X174594520Y-85281718D01*
X174546902Y-85234099D01*
X174539231Y-85227804D01*
X174537502Y-85225810D01*
X174534494Y-85223916D01*
X174531748Y-85221663D01*
X174529308Y-85220652D01*
X174520912Y-85215367D01*
X174425674Y-85167748D01*
X174407366Y-85160742D01*
X174403782Y-85160487D01*
X174400462Y-85159112D01*
X174380953Y-85157191D01*
X174285715Y-85157191D01*
X174266206Y-85159112D01*
X174262885Y-85160487D01*
X174259302Y-85160742D01*
X174240993Y-85167748D01*
X174145756Y-85215367D01*
X174137359Y-85220652D01*
X174134919Y-85221663D01*
X174132173Y-85223916D01*
X174129165Y-85225810D01*
X174127432Y-85227807D01*
X174119766Y-85234100D01*
X174072147Y-85281718D01*
X174065852Y-85289388D01*
X174063858Y-85291118D01*
X174061964Y-85294125D01*
X174059711Y-85296872D01*
X174058700Y-85299311D01*
X174053415Y-85307708D01*
X174005796Y-85402946D01*
X174005250Y-85404372D01*
X174004820Y-85404953D01*
X174001898Y-85413129D01*
X173998790Y-85421254D01*
X173998738Y-85421976D01*
X173998225Y-85423414D01*
X173950606Y-85613889D01*
X173950105Y-85617270D01*
X173949541Y-85618634D01*
X173948817Y-85625984D01*
X173947738Y-85633282D01*
X173947955Y-85634740D01*
X173947620Y-85638143D01*
X173740330Y-85638143D01*
X173761535Y-85574528D01*
X173763734Y-85564855D01*
X173764746Y-85562414D01*
X173765094Y-85558876D01*
X173765882Y-85555413D01*
X173765694Y-85552778D01*
X173766667Y-85542905D01*
X173766667Y-85447667D01*
X173764746Y-85428158D01*
X173763370Y-85424837D01*
X173763116Y-85421254D01*
X173756110Y-85402945D01*
X173708491Y-85307708D01*
X173703205Y-85299311D01*
X173702195Y-85296871D01*
X173699941Y-85294125D01*
X173698048Y-85291117D01*
X173696050Y-85289384D01*
X173689758Y-85281718D01*
X173642140Y-85234099D01*
X173634469Y-85227804D01*
X173632740Y-85225810D01*
X173629732Y-85223916D01*
X173626986Y-85221663D01*
X173624546Y-85220652D01*
X173616150Y-85215367D01*
X173520912Y-85167748D01*
X173502604Y-85160742D01*
X173499020Y-85160487D01*
X173495700Y-85159112D01*
X173476191Y-85157191D01*
X173238096Y-85157191D01*
X173218587Y-85159112D01*
X173215266Y-85160487D01*
X173211683Y-85160742D01*
X173193374Y-85167748D01*
X173098137Y-85215367D01*
X173089740Y-85220652D01*
X173087300Y-85221663D01*
X173084554Y-85223916D01*
X173081546Y-85225810D01*
X173079813Y-85227807D01*
X173072147Y-85234100D01*
X173024528Y-85281718D01*
X173012092Y-85296872D01*
X172997160Y-85332920D01*
X172997160Y-85371938D01*
X173012092Y-85407986D01*
X173039682Y-85435576D01*
X173075730Y-85450508D01*
X173114748Y-85450508D01*
X173150796Y-85435576D01*
X173165950Y-85423140D01*
X173202093Y-85386995D01*
X173261703Y-85357191D01*
X173452584Y-85357191D01*
X173512193Y-85386996D01*
X173536862Y-85411664D01*
X173566667Y-85471274D01*
X173566667Y-85526678D01*
X173531645Y-85631742D01*
X172976909Y-86186480D01*
X172964473Y-86201634D01*
X172949541Y-86237682D01*
X172004762Y-86237682D01*
X172004762Y-85733381D01*
X172002841Y-85713872D01*
X172001465Y-85710551D01*
X172001211Y-85706968D01*
X171994205Y-85688659D01*
X171946586Y-85593422D01*
X171944531Y-85590158D01*
X171944019Y-85588620D01*
X171942357Y-85586704D01*
X171936143Y-85576831D01*
X171926667Y-85568613D01*
X171918454Y-85559143D01*
X171908582Y-85552929D01*
X171906666Y-85551267D01*
X171905127Y-85550753D01*
X171901864Y-85548700D01*
X171806626Y-85501081D01*
X171788318Y-85494075D01*
X171784734Y-85493820D01*
X171781414Y-85492445D01*
X171761905Y-85490524D01*
X171619048Y-85490524D01*
X171599539Y-85492445D01*
X171596218Y-85493820D01*
X171592635Y-85494075D01*
X171574326Y-85501081D01*
X171541743Y-85517372D01*
X171531748Y-85507377D01*
X171495700Y-85492445D01*
X171456682Y-85492445D01*
X171420634Y-85507377D01*
X171393044Y-85534967D01*
X171378112Y-85571015D01*
X171376191Y-85590524D01*
X171039999Y-85590524D01*
X171039769Y-85590158D01*
X171039257Y-85588620D01*
X171037595Y-85586704D01*
X171031381Y-85576831D01*
X171021905Y-85568613D01*
X171013692Y-85559143D01*
X171003820Y-85552929D01*
X171001904Y-85551267D01*
X171000365Y-85550753D01*
X170997102Y-85548700D01*
X170901864Y-85501081D01*
X170883556Y-85494075D01*
X170879972Y-85493820D01*
X170876652Y-85492445D01*
X170857143Y-85490524D01*
X170714286Y-85490524D01*
X170694777Y-85492445D01*
X170691456Y-85493820D01*
X170687873Y-85494075D01*
X170669564Y-85501081D01*
X170636981Y-85517372D01*
X170626986Y-85507377D01*
X170590938Y-85492445D01*
X170551920Y-85492445D01*
X170515872Y-85507377D01*
X170488282Y-85534967D01*
X170473350Y-85571015D01*
X170471429Y-85590524D01*
X170182856Y-85590524D01*
X170182626Y-85590158D01*
X170182114Y-85588620D01*
X170180452Y-85586704D01*
X170174238Y-85576831D01*
X170164762Y-85568613D01*
X170156549Y-85559143D01*
X170146677Y-85552929D01*
X170144761Y-85551267D01*
X170143222Y-85550753D01*
X170139959Y-85548700D01*
X170044721Y-85501081D01*
X170026413Y-85494075D01*
X170022829Y-85493820D01*
X170019509Y-85492445D01*
X170000000Y-85490524D01*
X169809524Y-85490524D01*
X169790015Y-85492445D01*
X169786694Y-85493820D01*
X169783111Y-85494075D01*
X169764802Y-85501081D01*
X169669565Y-85548700D01*
X169666301Y-85550754D01*
X169664763Y-85551267D01*
X169662847Y-85552928D01*
X169652974Y-85559143D01*
X169644756Y-85568618D01*
X169635286Y-85576832D01*
X169629072Y-85586703D01*
X169627410Y-85588620D01*
X169626896Y-85590158D01*
X169624843Y-85593422D01*
X169577224Y-85688660D01*
X169570218Y-85706968D01*
X169569963Y-85710551D01*
X169568588Y-85713872D01*
X169566667Y-85733381D01*
X169290476Y-85733381D01*
X169290476Y-85257191D01*
X169288555Y-85237682D01*
X169273623Y-85201634D01*
X169246033Y-85174044D01*
X169209985Y-85159112D01*
X169170967Y-85159112D01*
X169134919Y-85174044D01*
X169107329Y-85201634D01*
X169092397Y-85237682D01*
X169090476Y-85257191D01*
X165338094Y-85257191D01*
X165336173Y-85237682D01*
X165321241Y-85201634D01*
X165293651Y-85174044D01*
X165257603Y-85159112D01*
X165218585Y-85159112D01*
X165182537Y-85174044D01*
X165154947Y-85201634D01*
X165140015Y-85237682D01*
X165138094Y-85257191D01*
X165026983Y-85257191D01*
X165026983Y-83647247D01*
X165304761Y-83647247D01*
X165304761Y-84647247D01*
X165306682Y-84666756D01*
X165321614Y-84702804D01*
X165349204Y-84730394D01*
X165385252Y-84745326D01*
X165404761Y-84747247D01*
X165880951Y-84747247D01*
X165900460Y-84745326D01*
X165936508Y-84730394D01*
X165964098Y-84702804D01*
X165979030Y-84666756D01*
X165979030Y-84627738D01*
X165964098Y-84591690D01*
X165936508Y-84564100D01*
X165900460Y-84549168D01*
X165880951Y-84547247D01*
X165504761Y-84547247D01*
X165504761Y-84223437D01*
X165738094Y-84223437D01*
X165757603Y-84221516D01*
X165793651Y-84206584D01*
X165821241Y-84178994D01*
X165836173Y-84142946D01*
X165836173Y-84103928D01*
X165821241Y-84067880D01*
X165793651Y-84040290D01*
X165757603Y-84025358D01*
X165738094Y-84023437D01*
X165504761Y-84023437D01*
X165504761Y-83837723D01*
X166161904Y-83837723D01*
X166161904Y-83932961D01*
X166163825Y-83952470D01*
X166165200Y-83955790D01*
X166165455Y-83959374D01*
X166172461Y-83977682D01*
X166220080Y-84072920D01*
X166225365Y-84081316D01*
X166226376Y-84083756D01*
X166228629Y-84086502D01*
X166230523Y-84089510D01*
X166232517Y-84091239D01*
X166238812Y-84098910D01*
X166286431Y-84146528D01*
X166294097Y-84152820D01*
X166295830Y-84154818D01*
X166298838Y-84156711D01*
X166301584Y-84158965D01*
X166304024Y-84159975D01*
X166312421Y-84165261D01*
X166407658Y-84212880D01*
X166409086Y-84213426D01*
X166409666Y-84213856D01*
X166417842Y-84216777D01*
X166425967Y-84219886D01*
X166426687Y-84219937D01*
X166428126Y-84220451D01*
X166607951Y-84265407D01*
X166678858Y-84300861D01*
X166703527Y-84325529D01*
X166733332Y-84385139D01*
X166733332Y-84433163D01*
X166703527Y-84492771D01*
X166678858Y-84517441D01*
X166619249Y-84547247D01*
X166420987Y-84547247D01*
X166293527Y-84504760D01*
X166274411Y-84500413D01*
X166235491Y-84503179D01*
X166200592Y-84520629D01*
X166175027Y-84550105D01*
X166162689Y-84587121D01*
X166165455Y-84626041D01*
X166182905Y-84660940D01*
X166212381Y-84686505D01*
X166230281Y-84694496D01*
X166373138Y-84742115D01*
X166382810Y-84744314D01*
X166385252Y-84745326D01*
X166388789Y-84745674D01*
X166392253Y-84746462D01*
X166394887Y-84746274D01*
X166404761Y-84747247D01*
X166642856Y-84747247D01*
X166662365Y-84745326D01*
X166665685Y-84743950D01*
X166669269Y-84743696D01*
X166687577Y-84736690D01*
X166782815Y-84689071D01*
X166791210Y-84683786D01*
X166793652Y-84682775D01*
X166796399Y-84680519D01*
X166799405Y-84678628D01*
X166801135Y-84676633D01*
X166808805Y-84670338D01*
X166856424Y-84622718D01*
X166862716Y-84615051D01*
X166864713Y-84613320D01*
X166866606Y-84610312D01*
X166868861Y-84607565D01*
X166869872Y-84605123D01*
X166875156Y-84596729D01*
X166922775Y-84501492D01*
X166929781Y-84483183D01*
X166930035Y-84479599D01*
X166931411Y-84476279D01*
X166933332Y-84456770D01*
X166933332Y-84361532D01*
X166931411Y-84342023D01*
X166930035Y-84338702D01*
X166929781Y-84335119D01*
X166922775Y-84316810D01*
X166875156Y-84221573D01*
X166869870Y-84213176D01*
X166868860Y-84210736D01*
X166866606Y-84207990D01*
X166864713Y-84204982D01*
X166862715Y-84203249D01*
X166856423Y-84195583D01*
X166808805Y-84147964D01*
X166801134Y-84141669D01*
X166799405Y-84139675D01*
X166796397Y-84137781D01*
X166793651Y-84135528D01*
X166791211Y-84134517D01*
X166782815Y-84129232D01*
X166687577Y-84081613D01*
X166686150Y-84081067D01*
X166685570Y-84080637D01*
X166677393Y-84077715D01*
X166669269Y-84074607D01*
X166668546Y-84074555D01*
X166667109Y-84074042D01*
X166487284Y-84029085D01*
X166416377Y-83993632D01*
X166391709Y-83968963D01*
X166361904Y-83909353D01*
X166361904Y-83861330D01*
X166391709Y-83801720D01*
X166416377Y-83777051D01*
X166475987Y-83747247D01*
X166674248Y-83747247D01*
X166801709Y-83789734D01*
X166820824Y-83794081D01*
X166859744Y-83791315D01*
X166894643Y-83773865D01*
X166920208Y-83744389D01*
X166932547Y-83707373D01*
X166929780Y-83668453D01*
X166919177Y-83647247D01*
X167161904Y-83647247D01*
X167161904Y-84647247D01*
X167163825Y-84666756D01*
X167178757Y-84702804D01*
X167206347Y-84730394D01*
X167242395Y-84745326D01*
X167281413Y-84745326D01*
X167317461Y-84730394D01*
X167345051Y-84702804D01*
X167359983Y-84666756D01*
X167361904Y-84647247D01*
X167361904Y-84271056D01*
X167642856Y-84271056D01*
X167662365Y-84269135D01*
X167665685Y-84267759D01*
X167669269Y-84267505D01*
X167687577Y-84260499D01*
X167782815Y-84212880D01*
X167791211Y-84207594D01*
X167793651Y-84206584D01*
X167796397Y-84204330D01*
X167799405Y-84202437D01*
X167801134Y-84200442D01*
X167808805Y-84194148D01*
X167856423Y-84146529D01*
X167862715Y-84138862D01*
X167864713Y-84137130D01*
X167866606Y-84134121D01*
X167868860Y-84131376D01*
X167869870Y-84128935D01*
X167875156Y-84120539D01*
X167922775Y-84025302D01*
X167929781Y-84006993D01*
X167930035Y-84003409D01*
X167931411Y-84000089D01*
X167933332Y-83980580D01*
X167933332Y-83837723D01*
X167931411Y-83818214D01*
X167930035Y-83814893D01*
X167929781Y-83811310D01*
X167922775Y-83793001D01*
X167875156Y-83697764D01*
X167869870Y-83689367D01*
X167868860Y-83686927D01*
X167866606Y-83684181D01*
X167864713Y-83681173D01*
X167862715Y-83679440D01*
X167856423Y-83671774D01*
X167812388Y-83627738D01*
X168068587Y-83627738D01*
X168068587Y-83666756D01*
X168083519Y-83702804D01*
X168111109Y-83730394D01*
X168147157Y-83745326D01*
X168166666Y-83747247D01*
X168565336Y-83747247D01*
X168377122Y-83962349D01*
X168371092Y-83970782D01*
X168369233Y-83972642D01*
X168368502Y-83974405D01*
X168365721Y-83978296D01*
X168360516Y-83993684D01*
X168354301Y-84008690D01*
X168354301Y-84012063D01*
X168353221Y-84015257D01*
X168354301Y-84031459D01*
X168354301Y-84047708D01*
X168355591Y-84050823D01*
X168355816Y-84054189D01*
X168363016Y-84068749D01*
X168369233Y-84083756D01*
X168371617Y-84086140D01*
X168373113Y-84089164D01*
X168385338Y-84099861D01*
X168396823Y-84111346D01*
X168399937Y-84112636D01*
X168402477Y-84114858D01*
X168417865Y-84120062D01*
X168432871Y-84126278D01*
X168437630Y-84126746D01*
X168439438Y-84127358D01*
X168442062Y-84127183D01*
X168452380Y-84128199D01*
X168571630Y-84128199D01*
X168631239Y-84158004D01*
X168655908Y-84182672D01*
X168685713Y-84242282D01*
X168685713Y-84433163D01*
X168655908Y-84492771D01*
X168631239Y-84517441D01*
X168571630Y-84547247D01*
X168333130Y-84547247D01*
X168273520Y-84517442D01*
X168237377Y-84481298D01*
X168222224Y-84468861D01*
X168186176Y-84453930D01*
X168147158Y-84453929D01*
X168111109Y-84468860D01*
X168083519Y-84496450D01*
X168068588Y-84532498D01*
X168068587Y-84571516D01*
X168083518Y-84607565D01*
X168095955Y-84622718D01*
X168143573Y-84670338D01*
X168151241Y-84676631D01*
X168152973Y-84678628D01*
X168155981Y-84680521D01*
X168158727Y-84682775D01*
X168161167Y-84683785D01*
X168169564Y-84689071D01*
X168264801Y-84736690D01*
X168283110Y-84743696D01*
X168286693Y-84743950D01*
X168290014Y-84745326D01*
X168309523Y-84747247D01*
X168595237Y-84747247D01*
X168614746Y-84745326D01*
X168618066Y-84743950D01*
X168621650Y-84743696D01*
X168639958Y-84736690D01*
X168735196Y-84689071D01*
X168743591Y-84683786D01*
X168746033Y-84682775D01*
X168748780Y-84680519D01*
X168751786Y-84678628D01*
X168753516Y-84676633D01*
X168761186Y-84670338D01*
X168803785Y-84627738D01*
X169020968Y-84627738D01*
X169020968Y-84666756D01*
X169035900Y-84702804D01*
X169063490Y-84730394D01*
X169099538Y-84745326D01*
X169119047Y-84747247D01*
X169738094Y-84747247D01*
X169757603Y-84745326D01*
X169793651Y-84730394D01*
X169821241Y-84702804D01*
X169836173Y-84666756D01*
X169836173Y-84627738D01*
X169821241Y-84591690D01*
X169793651Y-84564100D01*
X169757603Y-84549168D01*
X169738094Y-84547247D01*
X169360469Y-84547247D01*
X169660930Y-84246785D01*
X170068587Y-84246785D01*
X170068587Y-84285803D01*
X170083519Y-84321851D01*
X170111109Y-84349441D01*
X170147157Y-84364373D01*
X170166666Y-84366294D01*
X170928571Y-84366294D01*
X170948080Y-84364373D01*
X170984128Y-84349441D01*
X171011718Y-84321851D01*
X171026650Y-84285803D01*
X171026650Y-84246785D01*
X171011718Y-84210737D01*
X170984128Y-84183147D01*
X170948080Y-84168215D01*
X170928571Y-84166294D01*
X170166666Y-84166294D01*
X170147157Y-84168215D01*
X170111109Y-84183147D01*
X170083519Y-84210737D01*
X170068587Y-84246785D01*
X169660930Y-84246785D01*
X169761186Y-84146529D01*
X169773622Y-84131375D01*
X169774996Y-84128056D01*
X169777352Y-84125341D01*
X169785343Y-84107441D01*
X169795884Y-84075818D01*
X171257142Y-84075818D01*
X171257142Y-84218675D01*
X171257477Y-84222077D01*
X171257260Y-84223536D01*
X171258339Y-84230833D01*
X171259063Y-84238184D01*
X171259627Y-84239547D01*
X171260128Y-84242929D01*
X171307747Y-84433404D01*
X171308260Y-84434841D01*
X171308312Y-84435564D01*
X171311420Y-84443688D01*
X171314342Y-84451865D01*
X171314772Y-84452445D01*
X171315318Y-84453872D01*
X171362937Y-84549110D01*
X171368219Y-84557502D01*
X171369232Y-84559946D01*
X171371488Y-84562695D01*
X171373380Y-84565700D01*
X171375374Y-84567429D01*
X171381669Y-84575099D01*
X171476907Y-84670339D01*
X171492060Y-84682775D01*
X171495379Y-84684150D01*
X171498095Y-84686505D01*
X171515995Y-84694496D01*
X171658852Y-84742115D01*
X171668524Y-84744314D01*
X171670966Y-84745326D01*
X171674503Y-84745674D01*
X171677967Y-84746462D01*
X171680601Y-84746274D01*
X171690475Y-84747247D01*
X171785713Y-84747247D01*
X171795586Y-84746274D01*
X171798220Y-84746462D01*
X171801683Y-84745674D01*
X171805222Y-84745326D01*
X171807664Y-84744314D01*
X171817336Y-84742115D01*
X171960192Y-84694496D01*
X171978093Y-84686505D01*
X171980808Y-84684150D01*
X171984128Y-84682775D01*
X171999281Y-84670338D01*
X172046900Y-84622718D01*
X172059337Y-84607565D01*
X172074268Y-84571516D01*
X172074267Y-84532498D01*
X172059336Y-84496450D01*
X172031745Y-84468860D01*
X171995697Y-84453929D01*
X171956679Y-84453930D01*
X171920631Y-84468861D01*
X171905477Y-84481298D01*
X171874550Y-84512225D01*
X171769486Y-84547247D01*
X171706701Y-84547247D01*
X171601636Y-84512225D01*
X171534566Y-84445155D01*
X171499112Y-84374246D01*
X171457142Y-84206365D01*
X171457142Y-84088128D01*
X171499112Y-83920246D01*
X171534565Y-83849340D01*
X171601637Y-83782268D01*
X171706701Y-83747247D01*
X171769486Y-83747247D01*
X171874551Y-83782268D01*
X171905478Y-83813195D01*
X171920631Y-83825632D01*
X171956680Y-83840563D01*
X171995698Y-83840563D01*
X172031746Y-83825632D01*
X172059336Y-83798042D01*
X172074267Y-83761994D01*
X172074267Y-83722976D01*
X172059336Y-83686927D01*
X172046899Y-83671774D01*
X172002864Y-83627738D01*
X172211444Y-83627738D01*
X172211444Y-83666756D01*
X172226376Y-83702804D01*
X172253966Y-83730394D01*
X172290014Y-83745326D01*
X172309523Y-83747247D01*
X172708193Y-83747247D01*
X172519979Y-83962349D01*
X172513949Y-83970782D01*
X172512090Y-83972642D01*
X172511359Y-83974405D01*
X172508578Y-83978296D01*
X172503373Y-83993684D01*
X172497158Y-84008690D01*
X172497158Y-84012063D01*
X172496078Y-84015257D01*
X172497158Y-84031459D01*
X172497158Y-84047708D01*
X172498448Y-84050823D01*
X172498673Y-84054189D01*
X172505873Y-84068749D01*
X172512090Y-84083756D01*
X172514474Y-84086140D01*
X172515970Y-84089164D01*
X172528195Y-84099861D01*
X172539680Y-84111346D01*
X172542794Y-84112636D01*
X172545334Y-84114858D01*
X172560722Y-84120062D01*
X172575728Y-84126278D01*
X172580487Y-84126746D01*
X172582295Y-84127358D01*
X172584919Y-84127183D01*
X172595237Y-84128199D01*
X172714487Y-84128199D01*
X172774096Y-84158004D01*
X172798765Y-84182672D01*
X172828570Y-84242282D01*
X172828570Y-84433163D01*
X172798765Y-84492771D01*
X172774096Y-84517441D01*
X172714487Y-84547247D01*
X172475987Y-84547247D01*
X172416377Y-84517442D01*
X172380234Y-84481298D01*
X172365081Y-84468861D01*
X172329033Y-84453930D01*
X172290015Y-84453929D01*
X172253966Y-84468860D01*
X172226376Y-84496450D01*
X172211445Y-84532498D01*
X172211444Y-84571516D01*
X172226375Y-84607565D01*
X172238812Y-84622718D01*
X172286430Y-84670338D01*
X172294098Y-84676631D01*
X172295830Y-84678628D01*
X172298838Y-84680521D01*
X172301584Y-84682775D01*
X172304024Y-84683785D01*
X172312421Y-84689071D01*
X172407658Y-84736690D01*
X172425967Y-84743696D01*
X172429550Y-84743950D01*
X172432871Y-84745326D01*
X172452380Y-84747247D01*
X172738094Y-84747247D01*
X172757603Y-84745326D01*
X172760923Y-84743950D01*
X172764507Y-84743696D01*
X172782815Y-84736690D01*
X172878053Y-84689071D01*
X172886448Y-84683786D01*
X172888890Y-84682775D01*
X172891637Y-84680519D01*
X172894643Y-84678628D01*
X172896373Y-84676633D01*
X172904043Y-84670338D01*
X172951662Y-84622718D01*
X172957954Y-84615051D01*
X172959951Y-84613320D01*
X172961844Y-84610312D01*
X172964099Y-84607565D01*
X172965110Y-84605123D01*
X172970394Y-84596729D01*
X173018013Y-84501492D01*
X173025019Y-84483183D01*
X173025273Y-84479599D01*
X173026649Y-84476279D01*
X173028570Y-84456770D01*
X173028570Y-84218675D01*
X173026649Y-84199166D01*
X173025273Y-84195845D01*
X173025019Y-84192262D01*
X173018013Y-84173953D01*
X172970394Y-84078716D01*
X172965108Y-84070319D01*
X172964098Y-84067879D01*
X172961844Y-84065133D01*
X172959951Y-84062125D01*
X172957953Y-84060392D01*
X172951661Y-84052726D01*
X172904043Y-84005107D01*
X172896372Y-83998812D01*
X172894643Y-83996818D01*
X172891635Y-83994924D01*
X172888889Y-83992671D01*
X172886449Y-83991660D01*
X172878053Y-83986375D01*
X172799205Y-83946951D01*
X173003828Y-83713097D01*
X173009857Y-83704663D01*
X173011717Y-83702804D01*
X173012447Y-83701040D01*
X173015229Y-83697150D01*
X173020433Y-83681761D01*
X173026649Y-83666756D01*
X173026649Y-83663382D01*
X173027729Y-83660189D01*
X173027116Y-83650986D01*
X173923878Y-83650986D01*
X173926528Y-83670409D01*
X174164623Y-84670409D01*
X174166931Y-84677106D01*
X174167250Y-84679504D01*
X174168504Y-84681671D01*
X174171011Y-84688943D01*
X174179526Y-84700709D01*
X174186799Y-84713272D01*
X174190876Y-84716392D01*
X174193886Y-84720552D01*
X174206248Y-84728159D01*
X174217782Y-84736988D01*
X174222745Y-84738311D01*
X174227116Y-84741001D01*
X174241450Y-84743299D01*
X174255483Y-84747041D01*
X174260571Y-84746364D01*
X174265643Y-84747178D01*
X174279777Y-84743812D01*
X174294161Y-84741901D01*
X174298601Y-84739330D01*
X174303600Y-84738140D01*
X174315366Y-84729624D01*
X174327929Y-84722352D01*
X174331049Y-84718274D01*
X174335209Y-84715265D01*
X174342816Y-84702902D01*
X174351645Y-84691369D01*
X174354344Y-84684168D01*
X174355658Y-84682035D01*
X174356041Y-84679644D01*
X174358528Y-84673013D01*
X174452380Y-84321066D01*
X174546233Y-84673014D01*
X174548718Y-84679643D01*
X174549102Y-84682035D01*
X174550415Y-84684169D01*
X174553115Y-84691369D01*
X174561943Y-84702902D01*
X174569551Y-84715265D01*
X174573710Y-84718274D01*
X174576831Y-84722352D01*
X174589395Y-84729626D01*
X174601160Y-84738140D01*
X174606155Y-84739329D01*
X174610599Y-84741902D01*
X174624988Y-84743813D01*
X174639117Y-84747178D01*
X174644188Y-84746364D01*
X174649277Y-84747041D01*
X174663309Y-84743299D01*
X174677644Y-84741001D01*
X174682014Y-84738311D01*
X174686978Y-84736988D01*
X174698511Y-84728159D01*
X174710874Y-84720552D01*
X174713883Y-84716392D01*
X174717961Y-84713272D01*
X174725236Y-84700705D01*
X174733749Y-84688943D01*
X174736253Y-84681677D01*
X174737511Y-84679505D01*
X174737830Y-84677101D01*
X174740137Y-84670409D01*
X174978233Y-83670409D01*
X174980883Y-83650986D01*
X174980284Y-83647247D01*
X175161904Y-83647247D01*
X175161904Y-84647247D01*
X175163825Y-84666756D01*
X175178757Y-84702804D01*
X175206347Y-84730394D01*
X175242395Y-84745326D01*
X175261904Y-84747247D01*
X175738094Y-84747247D01*
X175757603Y-84745326D01*
X175793651Y-84730394D01*
X175821241Y-84702804D01*
X175836173Y-84666756D01*
X175836173Y-84627738D01*
X175821241Y-84591690D01*
X175793651Y-84564100D01*
X175757603Y-84549168D01*
X175738094Y-84547247D01*
X175361904Y-84547247D01*
X175361904Y-83647247D01*
X175971428Y-83647247D01*
X175971428Y-84647247D01*
X175973349Y-84666756D01*
X175988281Y-84702804D01*
X176015871Y-84730394D01*
X176051919Y-84745326D01*
X176071428Y-84747247D01*
X176547618Y-84747247D01*
X176567127Y-84745326D01*
X176603175Y-84730394D01*
X176630765Y-84702804D01*
X176645697Y-84666756D01*
X176645697Y-84627738D01*
X176630765Y-84591690D01*
X176603175Y-84564100D01*
X176567127Y-84549168D01*
X176547618Y-84547247D01*
X176171428Y-84547247D01*
X176171428Y-84223437D01*
X176404761Y-84223437D01*
X176424270Y-84221516D01*
X176460318Y-84206584D01*
X176487908Y-84178994D01*
X176502840Y-84142946D01*
X176502840Y-84103928D01*
X176487908Y-84067880D01*
X176460318Y-84040290D01*
X176424270Y-84025358D01*
X176404761Y-84023437D01*
X176171428Y-84023437D01*
X176171428Y-83747247D01*
X176547618Y-83747247D01*
X176567127Y-83745326D01*
X176603175Y-83730394D01*
X176630765Y-83702804D01*
X176645697Y-83666756D01*
X176645697Y-83647247D01*
X176876190Y-83647247D01*
X176876190Y-84647247D01*
X176878111Y-84666756D01*
X176893043Y-84702804D01*
X176920633Y-84730394D01*
X176956681Y-84745326D01*
X176976190Y-84747247D01*
X177214285Y-84747247D01*
X177224158Y-84746274D01*
X177226792Y-84746462D01*
X177230255Y-84745674D01*
X177233794Y-84745326D01*
X177236236Y-84744314D01*
X177245908Y-84742115D01*
X177388764Y-84694496D01*
X177406665Y-84686505D01*
X177409380Y-84684150D01*
X177412700Y-84682775D01*
X177427853Y-84670338D01*
X177523091Y-84575099D01*
X177529383Y-84567432D01*
X177531380Y-84565701D01*
X177533273Y-84562693D01*
X177535528Y-84559946D01*
X177536539Y-84557504D01*
X177541823Y-84549110D01*
X177589442Y-84453873D01*
X177589988Y-84452444D01*
X177590418Y-84451865D01*
X177593339Y-84443688D01*
X177596448Y-84435564D01*
X177596499Y-84434843D01*
X177597013Y-84433405D01*
X177644632Y-84242929D01*
X177645132Y-84239547D01*
X177645697Y-84238184D01*
X177646420Y-84230833D01*
X177647500Y-84223536D01*
X177647282Y-84222077D01*
X177647618Y-84218675D01*
X177647618Y-84075818D01*
X177647282Y-84072415D01*
X177647500Y-84070957D01*
X177646420Y-84063659D01*
X177645697Y-84056309D01*
X177645132Y-84054945D01*
X177644632Y-84051564D01*
X177597013Y-83861088D01*
X177596499Y-83859649D01*
X177596448Y-83858929D01*
X177593339Y-83850804D01*
X177590418Y-83842628D01*
X177589988Y-83842048D01*
X177589442Y-83840620D01*
X177541823Y-83745383D01*
X177536536Y-83736984D01*
X177535527Y-83734547D01*
X177533275Y-83731803D01*
X177531380Y-83728792D01*
X177529382Y-83727059D01*
X177523091Y-83719393D01*
X177450945Y-83647247D01*
X178638095Y-83647247D01*
X178638095Y-84647247D01*
X178640016Y-84666756D01*
X178654948Y-84702804D01*
X178682538Y-84730394D01*
X178718586Y-84745326D01*
X178738095Y-84747247D01*
X179119047Y-84747247D01*
X179138556Y-84745326D01*
X179141876Y-84743950D01*
X179145460Y-84743696D01*
X179163768Y-84736690D01*
X179259006Y-84689071D01*
X179267401Y-84683786D01*
X179269843Y-84682775D01*
X179272590Y-84680519D01*
X179275596Y-84678628D01*
X179277326Y-84676633D01*
X179284996Y-84670338D01*
X179332615Y-84622718D01*
X179338907Y-84615051D01*
X179340904Y-84613320D01*
X179342797Y-84610312D01*
X179345052Y-84607565D01*
X179346063Y-84605123D01*
X179351347Y-84596729D01*
X179398966Y-84501492D01*
X179405972Y-84483183D01*
X179406226Y-84479599D01*
X179407602Y-84476279D01*
X179409523Y-84456770D01*
X179409523Y-84313913D01*
X179407602Y-84294404D01*
X179406226Y-84291083D01*
X179405972Y-84287500D01*
X179398966Y-84269191D01*
X179351347Y-84173954D01*
X179349523Y-84171056D01*
X179590476Y-84171056D01*
X179590476Y-84456770D01*
X179592397Y-84476279D01*
X179593772Y-84479599D01*
X179594027Y-84483183D01*
X179601033Y-84501491D01*
X179648652Y-84596729D01*
X179653935Y-84605121D01*
X179654947Y-84607565D01*
X179657203Y-84610314D01*
X179659095Y-84613319D01*
X179661089Y-84615048D01*
X179667384Y-84622718D01*
X179715002Y-84670338D01*
X179722670Y-84676631D01*
X179724402Y-84678628D01*
X179727410Y-84680521D01*
X179730156Y-84682775D01*
X179732596Y-84683785D01*
X179740993Y-84689071D01*
X179836230Y-84736690D01*
X179854539Y-84743696D01*
X179858122Y-84743950D01*
X179861443Y-84745326D01*
X179880952Y-84747247D01*
X180023809Y-84747247D01*
X180043318Y-84745326D01*
X180046638Y-84743950D01*
X180050222Y-84743696D01*
X180068530Y-84736690D01*
X180163768Y-84689071D01*
X180172163Y-84683786D01*
X180174605Y-84682775D01*
X180177352Y-84680519D01*
X180180358Y-84678628D01*
X180182088Y-84676633D01*
X180189758Y-84670338D01*
X180237377Y-84622718D01*
X180243669Y-84615051D01*
X180245666Y-84613320D01*
X180247559Y-84610312D01*
X180249814Y-84607565D01*
X180250825Y-84605123D01*
X180256109Y-84596729D01*
X180303728Y-84501492D01*
X180310734Y-84483183D01*
X180310988Y-84479599D01*
X180312364Y-84476279D01*
X180314285Y-84456770D01*
X180314285Y-84409151D01*
X180495238Y-84409151D01*
X180495238Y-84504389D01*
X180497159Y-84523898D01*
X180498534Y-84527218D01*
X180498789Y-84530801D01*
X180505795Y-84549110D01*
X180553414Y-84644349D01*
X180555467Y-84647612D01*
X180555981Y-84649151D01*
X180557643Y-84651067D01*
X180563857Y-84660939D01*
X180573328Y-84669153D01*
X180581545Y-84678628D01*
X180591415Y-84684840D01*
X180593333Y-84686504D01*
X180594873Y-84687017D01*
X180598136Y-84689071D01*
X180693373Y-84736690D01*
X180711682Y-84743696D01*
X180715265Y-84743950D01*
X180718586Y-84745326D01*
X180738095Y-84747247D01*
X180976190Y-84747247D01*
X180995699Y-84745326D01*
X180999019Y-84743950D01*
X181002603Y-84743696D01*
X181020911Y-84736690D01*
X181025514Y-84734388D01*
X181051919Y-84745326D01*
X181090937Y-84745326D01*
X181126985Y-84730394D01*
X181154575Y-84702804D01*
X181169507Y-84666756D01*
X181171428Y-84647247D01*
X181171428Y-84123437D01*
X181169507Y-84103928D01*
X181168131Y-84100607D01*
X181167877Y-84097024D01*
X181160871Y-84078715D01*
X181113252Y-83983478D01*
X181111427Y-83980580D01*
X181447619Y-83980580D01*
X181447619Y-84647247D01*
X181449540Y-84666756D01*
X181464472Y-84702804D01*
X181492062Y-84730394D01*
X181528110Y-84745326D01*
X181567128Y-84745326D01*
X181603176Y-84730394D01*
X181630766Y-84702804D01*
X181645698Y-84666756D01*
X181647619Y-84647247D01*
X181647619Y-84194663D01*
X181659423Y-84171056D01*
X182019048Y-84171056D01*
X182019048Y-84456770D01*
X182020969Y-84476279D01*
X182022344Y-84479599D01*
X182022599Y-84483183D01*
X182029605Y-84501491D01*
X182077224Y-84596729D01*
X182082507Y-84605121D01*
X182083519Y-84607565D01*
X182085775Y-84610314D01*
X182087667Y-84613319D01*
X182089661Y-84615048D01*
X182095956Y-84622718D01*
X182143574Y-84670338D01*
X182151242Y-84676631D01*
X182152974Y-84678628D01*
X182155982Y-84680521D01*
X182158728Y-84682775D01*
X182161168Y-84683785D01*
X182169565Y-84689071D01*
X182264802Y-84736690D01*
X182283111Y-84743696D01*
X182286694Y-84743950D01*
X182290015Y-84745326D01*
X182309524Y-84747247D01*
X182500000Y-84747247D01*
X182519509Y-84745326D01*
X182522829Y-84743950D01*
X182526413Y-84743696D01*
X182544721Y-84736690D01*
X182549324Y-84734388D01*
X182575729Y-84745326D01*
X182614747Y-84745326D01*
X182650795Y-84730394D01*
X182678385Y-84702804D01*
X182693317Y-84666756D01*
X182695238Y-84647247D01*
X182695238Y-83647247D01*
X182693317Y-83627738D01*
X182678385Y-83591690D01*
X182650795Y-83564100D01*
X182614747Y-83549168D01*
X182575729Y-83549168D01*
X182539681Y-83564100D01*
X182512091Y-83591690D01*
X182497159Y-83627738D01*
X182495238Y-83647247D01*
X182495238Y-83880580D01*
X182309524Y-83880580D01*
X182290015Y-83882501D01*
X182286694Y-83883876D01*
X182283111Y-83884131D01*
X182264802Y-83891137D01*
X182169565Y-83938756D01*
X182161168Y-83944041D01*
X182158728Y-83945052D01*
X182155982Y-83947305D01*
X182152974Y-83949199D01*
X182151241Y-83951196D01*
X182143575Y-83957489D01*
X182095956Y-84005107D01*
X182089661Y-84012777D01*
X182087667Y-84014507D01*
X182085773Y-84017514D01*
X182083520Y-84020261D01*
X182082509Y-84022700D01*
X182077224Y-84031097D01*
X182029605Y-84126335D01*
X182022599Y-84144643D01*
X182022344Y-84148226D01*
X182020969Y-84151547D01*
X182019048Y-84171056D01*
X181659423Y-84171056D01*
X181677424Y-84135053D01*
X181702092Y-84110384D01*
X181761702Y-84080580D01*
X181833333Y-84080580D01*
X181852842Y-84078659D01*
X181888890Y-84063727D01*
X181916480Y-84036137D01*
X181931412Y-84000089D01*
X181931412Y-83961071D01*
X181916480Y-83925023D01*
X181888890Y-83897433D01*
X181852842Y-83882501D01*
X181833333Y-83880580D01*
X181738095Y-83880580D01*
X181718586Y-83882501D01*
X181715265Y-83883876D01*
X181711682Y-83884131D01*
X181693373Y-83891137D01*
X181629044Y-83923301D01*
X181603176Y-83897433D01*
X181567128Y-83882501D01*
X181528110Y-83882501D01*
X181492062Y-83897433D01*
X181464472Y-83925023D01*
X181449540Y-83961071D01*
X181447619Y-83980580D01*
X181111427Y-83980580D01*
X181111197Y-83980214D01*
X181110685Y-83978676D01*
X181109023Y-83976760D01*
X181102809Y-83966887D01*
X181093333Y-83958669D01*
X181085120Y-83949199D01*
X181075248Y-83942985D01*
X181073332Y-83941323D01*
X181071793Y-83940809D01*
X181068530Y-83938756D01*
X180973292Y-83891137D01*
X180954984Y-83884131D01*
X180951400Y-83883876D01*
X180948080Y-83882501D01*
X180928571Y-83880580D01*
X180738095Y-83880580D01*
X180718586Y-83882501D01*
X180715265Y-83883876D01*
X180711682Y-83884131D01*
X180693373Y-83891137D01*
X180598136Y-83938756D01*
X180581545Y-83949199D01*
X180555981Y-83978676D01*
X180543642Y-84015692D01*
X180546408Y-84054612D01*
X180563857Y-84089511D01*
X180593334Y-84115075D01*
X180630350Y-84127414D01*
X180669270Y-84124648D01*
X180687578Y-84117642D01*
X180761702Y-84080580D01*
X180904964Y-84080580D01*
X180949273Y-84102735D01*
X180971428Y-84147044D01*
X180971428Y-84156871D01*
X180952583Y-84166294D01*
X180738095Y-84166294D01*
X180718586Y-84168215D01*
X180715265Y-84169590D01*
X180711682Y-84169845D01*
X180693373Y-84176851D01*
X180598136Y-84224470D01*
X180594872Y-84226524D01*
X180593334Y-84227037D01*
X180591418Y-84228698D01*
X180581545Y-84234913D01*
X180573327Y-84244388D01*
X180563857Y-84252602D01*
X180557643Y-84262473D01*
X180555981Y-84264390D01*
X180555467Y-84265928D01*
X180553414Y-84269192D01*
X180505795Y-84364430D01*
X180498789Y-84382738D01*
X180498534Y-84386321D01*
X180497159Y-84389642D01*
X180495238Y-84409151D01*
X180314285Y-84409151D01*
X180314285Y-84171056D01*
X180312364Y-84151547D01*
X180310988Y-84148226D01*
X180310734Y-84144643D01*
X180303728Y-84126334D01*
X180256109Y-84031097D01*
X180250823Y-84022700D01*
X180249813Y-84020260D01*
X180247559Y-84017514D01*
X180245666Y-84014506D01*
X180243668Y-84012773D01*
X180237376Y-84005107D01*
X180189758Y-83957488D01*
X180182087Y-83951193D01*
X180180358Y-83949199D01*
X180177350Y-83947305D01*
X180174604Y-83945052D01*
X180172164Y-83944041D01*
X180163768Y-83938756D01*
X180068530Y-83891137D01*
X180050222Y-83884131D01*
X180046638Y-83883876D01*
X180043318Y-83882501D01*
X180023809Y-83880580D01*
X179880952Y-83880580D01*
X179861443Y-83882501D01*
X179858122Y-83883876D01*
X179854539Y-83884131D01*
X179836230Y-83891137D01*
X179740993Y-83938756D01*
X179732596Y-83944041D01*
X179730156Y-83945052D01*
X179727410Y-83947305D01*
X179724402Y-83949199D01*
X179722669Y-83951196D01*
X179715003Y-83957489D01*
X179667384Y-84005107D01*
X179661089Y-84012777D01*
X179659095Y-84014507D01*
X179657201Y-84017514D01*
X179654948Y-84020261D01*
X179653937Y-84022700D01*
X179648652Y-84031097D01*
X179601033Y-84126335D01*
X179594027Y-84144643D01*
X179593772Y-84148226D01*
X179592397Y-84151547D01*
X179590476Y-84171056D01*
X179349523Y-84171056D01*
X179346061Y-84165557D01*
X179345051Y-84163117D01*
X179342797Y-84160371D01*
X179340904Y-84157363D01*
X179338906Y-84155630D01*
X179332614Y-84147964D01*
X179284996Y-84100345D01*
X179284207Y-84099697D01*
X179284995Y-84098910D01*
X179291287Y-84091243D01*
X179293285Y-84089511D01*
X179295178Y-84086502D01*
X179297432Y-84083757D01*
X179298442Y-84081316D01*
X179303728Y-84072920D01*
X179351347Y-83977683D01*
X179358353Y-83959374D01*
X179358607Y-83955790D01*
X179359983Y-83952470D01*
X179361904Y-83932961D01*
X179361904Y-83837723D01*
X179359983Y-83818214D01*
X179358607Y-83814893D01*
X179358353Y-83811310D01*
X179351347Y-83793001D01*
X179303728Y-83697764D01*
X179298442Y-83689367D01*
X179297432Y-83686927D01*
X179295178Y-83684181D01*
X179293285Y-83681173D01*
X179291287Y-83679440D01*
X179284995Y-83671774D01*
X179237377Y-83624155D01*
X179229706Y-83617860D01*
X179227977Y-83615866D01*
X179224969Y-83613972D01*
X179222223Y-83611719D01*
X179219783Y-83610708D01*
X179211387Y-83605423D01*
X179116149Y-83557804D01*
X179097841Y-83550798D01*
X179094257Y-83550543D01*
X179090937Y-83549168D01*
X179071428Y-83547247D01*
X178738095Y-83547247D01*
X178718586Y-83549168D01*
X178682538Y-83564100D01*
X178654948Y-83591690D01*
X178640016Y-83627738D01*
X178638095Y-83647247D01*
X177450945Y-83647247D01*
X177427853Y-83624155D01*
X177412699Y-83611719D01*
X177409380Y-83610344D01*
X177406665Y-83607989D01*
X177388764Y-83599998D01*
X177245908Y-83552379D01*
X177236236Y-83550179D01*
X177233794Y-83549168D01*
X177230255Y-83548819D01*
X177226792Y-83548032D01*
X177224158Y-83548219D01*
X177214285Y-83547247D01*
X176976190Y-83547247D01*
X176956681Y-83549168D01*
X176920633Y-83564100D01*
X176893043Y-83591690D01*
X176878111Y-83627738D01*
X176876190Y-83647247D01*
X176645697Y-83647247D01*
X176645697Y-83627738D01*
X176630765Y-83591690D01*
X176603175Y-83564100D01*
X176567127Y-83549168D01*
X176547618Y-83547247D01*
X176071428Y-83547247D01*
X176051919Y-83549168D01*
X176015871Y-83564100D01*
X175988281Y-83591690D01*
X175973349Y-83627738D01*
X175971428Y-83647247D01*
X175361904Y-83647247D01*
X175359983Y-83627738D01*
X175345051Y-83591690D01*
X175317461Y-83564100D01*
X175281413Y-83549168D01*
X175242395Y-83549168D01*
X175206347Y-83564100D01*
X175178757Y-83591690D01*
X175163825Y-83627738D01*
X175161904Y-83647247D01*
X174980284Y-83647247D01*
X174974706Y-83612460D01*
X174954257Y-83579229D01*
X174922648Y-83556354D01*
X174884691Y-83547317D01*
X174846164Y-83553493D01*
X174812934Y-83573942D01*
X174790059Y-83605551D01*
X174783671Y-83624085D01*
X174637367Y-84238558D01*
X174549004Y-83907195D01*
X174547290Y-83902624D01*
X174547035Y-83900703D01*
X174545714Y-83898421D01*
X174542121Y-83888839D01*
X174534096Y-83878356D01*
X174527485Y-83866936D01*
X174522341Y-83862999D01*
X174518405Y-83857856D01*
X174506987Y-83851246D01*
X174496502Y-83843220D01*
X174490238Y-83841549D01*
X174484637Y-83838307D01*
X174471559Y-83836569D01*
X174458801Y-83833167D01*
X174452379Y-83834020D01*
X174445959Y-83833167D01*
X174433205Y-83836567D01*
X174420123Y-83838306D01*
X174414518Y-83841550D01*
X174408258Y-83843220D01*
X174397774Y-83851244D01*
X174386355Y-83857856D01*
X174382418Y-83862999D01*
X174377275Y-83866936D01*
X174370665Y-83878353D01*
X174362639Y-83888839D01*
X174359043Y-83898427D01*
X174357726Y-83900704D01*
X174357471Y-83902622D01*
X174355757Y-83907194D01*
X174267392Y-84238558D01*
X174121090Y-83624085D01*
X174114702Y-83605551D01*
X174091827Y-83573942D01*
X174058597Y-83553493D01*
X174020070Y-83547316D01*
X173982113Y-83556354D01*
X173950504Y-83579229D01*
X173930055Y-83612459D01*
X173923878Y-83650986D01*
X173027116Y-83650986D01*
X173026649Y-83643986D01*
X173026649Y-83627738D01*
X173025358Y-83624622D01*
X173025134Y-83621257D01*
X173017931Y-83606691D01*
X173011717Y-83591690D01*
X173009333Y-83589306D01*
X173007838Y-83586282D01*
X172995604Y-83575577D01*
X172984127Y-83564100D01*
X172981013Y-83562810D01*
X172978474Y-83560588D01*
X172963082Y-83555382D01*
X172948079Y-83549168D01*
X172943319Y-83548699D01*
X172941512Y-83548088D01*
X172938887Y-83548262D01*
X172928570Y-83547247D01*
X172309523Y-83547247D01*
X172290014Y-83549168D01*
X172253966Y-83564100D01*
X172226376Y-83591690D01*
X172211444Y-83627738D01*
X172002864Y-83627738D01*
X171999281Y-83624155D01*
X171984127Y-83611719D01*
X171980808Y-83610344D01*
X171978093Y-83607989D01*
X171960192Y-83599998D01*
X171817336Y-83552379D01*
X171807664Y-83550179D01*
X171805222Y-83549168D01*
X171801683Y-83548819D01*
X171798220Y-83548032D01*
X171795586Y-83548219D01*
X171785713Y-83547247D01*
X171690475Y-83547247D01*
X171680601Y-83548219D01*
X171677967Y-83548032D01*
X171674503Y-83548819D01*
X171670966Y-83549168D01*
X171668524Y-83550179D01*
X171658852Y-83552379D01*
X171515995Y-83599998D01*
X171498095Y-83607989D01*
X171495379Y-83610344D01*
X171492061Y-83611719D01*
X171476907Y-83624155D01*
X171381669Y-83719393D01*
X171375374Y-83727063D01*
X171373380Y-83728793D01*
X171371486Y-83731800D01*
X171369233Y-83734547D01*
X171368222Y-83736986D01*
X171362937Y-83745383D01*
X171315318Y-83840621D01*
X171314772Y-83842047D01*
X171314342Y-83842628D01*
X171311420Y-83850804D01*
X171308312Y-83858929D01*
X171308260Y-83859651D01*
X171307747Y-83861089D01*
X171260128Y-84051564D01*
X171259627Y-84054945D01*
X171259063Y-84056309D01*
X171258339Y-84063659D01*
X171257260Y-84070957D01*
X171257477Y-84072415D01*
X171257142Y-84075818D01*
X169795884Y-84075818D01*
X169832962Y-83964584D01*
X169835161Y-83954911D01*
X169836173Y-83952470D01*
X169836521Y-83948932D01*
X169837309Y-83945469D01*
X169837121Y-83942834D01*
X169838094Y-83932961D01*
X169838094Y-83837723D01*
X169836173Y-83818214D01*
X169834797Y-83814893D01*
X169834543Y-83811310D01*
X169827537Y-83793001D01*
X169779918Y-83697764D01*
X169774632Y-83689367D01*
X169773622Y-83686927D01*
X169771368Y-83684181D01*
X169769475Y-83681173D01*
X169767477Y-83679440D01*
X169761185Y-83671774D01*
X169713567Y-83624155D01*
X169705896Y-83617860D01*
X169704167Y-83615866D01*
X169701159Y-83613972D01*
X169698413Y-83611719D01*
X169695973Y-83610708D01*
X169687577Y-83605423D01*
X169592339Y-83557804D01*
X169574031Y-83550798D01*
X169570447Y-83550543D01*
X169567127Y-83549168D01*
X169547618Y-83547247D01*
X169309523Y-83547247D01*
X169290014Y-83549168D01*
X169286693Y-83550543D01*
X169283110Y-83550798D01*
X169264801Y-83557804D01*
X169169564Y-83605423D01*
X169161167Y-83610708D01*
X169158727Y-83611719D01*
X169155981Y-83613972D01*
X169152973Y-83615866D01*
X169151240Y-83617863D01*
X169143574Y-83624156D01*
X169095955Y-83671774D01*
X169083519Y-83686928D01*
X169068587Y-83722976D01*
X169068587Y-83761994D01*
X169083519Y-83798042D01*
X169111109Y-83825632D01*
X169147157Y-83840564D01*
X169186175Y-83840564D01*
X169222223Y-83825632D01*
X169237377Y-83813196D01*
X169273520Y-83777051D01*
X169333130Y-83747247D01*
X169524011Y-83747247D01*
X169583620Y-83777052D01*
X169608289Y-83801720D01*
X169638094Y-83861330D01*
X169638094Y-83916734D01*
X169603072Y-84021798D01*
X169048336Y-84576536D01*
X169035900Y-84591690D01*
X169020968Y-84627738D01*
X168803785Y-84627738D01*
X168808805Y-84622718D01*
X168815097Y-84615051D01*
X168817094Y-84613320D01*
X168818987Y-84610312D01*
X168821242Y-84607565D01*
X168822253Y-84605123D01*
X168827537Y-84596729D01*
X168875156Y-84501492D01*
X168882162Y-84483183D01*
X168882416Y-84479599D01*
X168883792Y-84476279D01*
X168885713Y-84456770D01*
X168885713Y-84218675D01*
X168883792Y-84199166D01*
X168882416Y-84195845D01*
X168882162Y-84192262D01*
X168875156Y-84173953D01*
X168827537Y-84078716D01*
X168822251Y-84070319D01*
X168821241Y-84067879D01*
X168818987Y-84065133D01*
X168817094Y-84062125D01*
X168815096Y-84060392D01*
X168808804Y-84052726D01*
X168761186Y-84005107D01*
X168753515Y-83998812D01*
X168751786Y-83996818D01*
X168748778Y-83994924D01*
X168746032Y-83992671D01*
X168743592Y-83991660D01*
X168735196Y-83986375D01*
X168656348Y-83946951D01*
X168860971Y-83713097D01*
X168867000Y-83704663D01*
X168868860Y-83702804D01*
X168869590Y-83701040D01*
X168872372Y-83697150D01*
X168877576Y-83681761D01*
X168883792Y-83666756D01*
X168883792Y-83663382D01*
X168884872Y-83660189D01*
X168883792Y-83643986D01*
X168883792Y-83627738D01*
X168882501Y-83624622D01*
X168882277Y-83621257D01*
X168875074Y-83606691D01*
X168868860Y-83591690D01*
X168866476Y-83589306D01*
X168864981Y-83586282D01*
X168852747Y-83575577D01*
X168841270Y-83564100D01*
X168838156Y-83562810D01*
X168835617Y-83560588D01*
X168820225Y-83555382D01*
X168805222Y-83549168D01*
X168800462Y-83548699D01*
X168798655Y-83548088D01*
X168796030Y-83548262D01*
X168785713Y-83547247D01*
X168166666Y-83547247D01*
X168147157Y-83549168D01*
X168111109Y-83564100D01*
X168083519Y-83591690D01*
X168068587Y-83627738D01*
X167812388Y-83627738D01*
X167808805Y-83624155D01*
X167801134Y-83617860D01*
X167799405Y-83615866D01*
X167796397Y-83613972D01*
X167793651Y-83611719D01*
X167791211Y-83610708D01*
X167782815Y-83605423D01*
X167687577Y-83557804D01*
X167669269Y-83550798D01*
X167665685Y-83550543D01*
X167662365Y-83549168D01*
X167642856Y-83547247D01*
X167261904Y-83547247D01*
X167242395Y-83549168D01*
X167206347Y-83564100D01*
X167178757Y-83591690D01*
X167163825Y-83627738D01*
X167161904Y-83647247D01*
X166919177Y-83647247D01*
X166912331Y-83633554D01*
X166882855Y-83607989D01*
X166864954Y-83599998D01*
X166722098Y-83552379D01*
X166712426Y-83550179D01*
X166709984Y-83549168D01*
X166706445Y-83548819D01*
X166702982Y-83548032D01*
X166700348Y-83548219D01*
X166690475Y-83547247D01*
X166452380Y-83547247D01*
X166432871Y-83549168D01*
X166429550Y-83550543D01*
X166425967Y-83550798D01*
X166407658Y-83557804D01*
X166312421Y-83605423D01*
X166304024Y-83610708D01*
X166301584Y-83611719D01*
X166298838Y-83613972D01*
X166295830Y-83615866D01*
X166294097Y-83617863D01*
X166286431Y-83624156D01*
X166238812Y-83671774D01*
X166232517Y-83679444D01*
X166230523Y-83681174D01*
X166228629Y-83684181D01*
X166226376Y-83686928D01*
X166225365Y-83689367D01*
X166220080Y-83697764D01*
X166172461Y-83793002D01*
X166165455Y-83811310D01*
X166165200Y-83814893D01*
X166163825Y-83818214D01*
X166161904Y-83837723D01*
X165504761Y-83837723D01*
X165504761Y-83747247D01*
X165880951Y-83747247D01*
X165900460Y-83745326D01*
X165936508Y-83730394D01*
X165964098Y-83702804D01*
X165979030Y-83666756D01*
X165979030Y-83627738D01*
X165964098Y-83591690D01*
X165936508Y-83564100D01*
X165900460Y-83549168D01*
X165880951Y-83547247D01*
X165404761Y-83547247D01*
X165385252Y-83549168D01*
X165349204Y-83564100D01*
X165321614Y-83591690D01*
X165306682Y-83627738D01*
X165304761Y-83647247D01*
X165026983Y-83647247D01*
X165026983Y-83436136D01*
X183020635Y-83436136D01*
X183020635Y-86801635D01*
G37*
D12*
X156954819Y-108511904D02*
X157764342Y-108511904D01*
X157764342Y-108511904D02*
X157859580Y-108464285D01*
X157859580Y-108464285D02*
X157907200Y-108416666D01*
X157907200Y-108416666D02*
X157954819Y-108321428D01*
X157954819Y-108321428D02*
X157954819Y-108130952D01*
X157954819Y-108130952D02*
X157907200Y-108035714D01*
X157907200Y-108035714D02*
X157859580Y-107988095D01*
X157859580Y-107988095D02*
X157764342Y-107940476D01*
X157764342Y-107940476D02*
X156954819Y-107940476D01*
X157954819Y-106940476D02*
X157954819Y-107511904D01*
X157954819Y-107226190D02*
X156954819Y-107226190D01*
X156954819Y-107226190D02*
X157097676Y-107321428D01*
X157097676Y-107321428D02*
X157192914Y-107416666D01*
X157192914Y-107416666D02*
X157240533Y-107511904D01*
X169833333Y-112859580D02*
X169785714Y-112907200D01*
X169785714Y-112907200D02*
X169642857Y-112954819D01*
X169642857Y-112954819D02*
X169547619Y-112954819D01*
X169547619Y-112954819D02*
X169404762Y-112907200D01*
X169404762Y-112907200D02*
X169309524Y-112811961D01*
X169309524Y-112811961D02*
X169261905Y-112716723D01*
X169261905Y-112716723D02*
X169214286Y-112526247D01*
X169214286Y-112526247D02*
X169214286Y-112383390D01*
X169214286Y-112383390D02*
X169261905Y-112192914D01*
X169261905Y-112192914D02*
X169309524Y-112097676D01*
X169309524Y-112097676D02*
X169404762Y-112002438D01*
X169404762Y-112002438D02*
X169547619Y-111954819D01*
X169547619Y-111954819D02*
X169642857Y-111954819D01*
X169642857Y-111954819D02*
X169785714Y-112002438D01*
X169785714Y-112002438D02*
X169833333Y-112050057D01*
X170785714Y-112954819D02*
X170214286Y-112954819D01*
X170500000Y-112954819D02*
X170500000Y-111954819D01*
X170500000Y-111954819D02*
X170404762Y-112097676D01*
X170404762Y-112097676D02*
X170309524Y-112192914D01*
X170309524Y-112192914D02*
X170214286Y-112240533D01*
X171738095Y-116704819D02*
X171738095Y-117514342D01*
X171738095Y-117514342D02*
X171785714Y-117609580D01*
X171785714Y-117609580D02*
X171833333Y-117657200D01*
X171833333Y-117657200D02*
X171928571Y-117704819D01*
X171928571Y-117704819D02*
X172119047Y-117704819D01*
X172119047Y-117704819D02*
X172214285Y-117657200D01*
X172214285Y-117657200D02*
X172261904Y-117609580D01*
X172261904Y-117609580D02*
X172309523Y-117514342D01*
X172309523Y-117514342D02*
X172309523Y-116704819D01*
X172738095Y-116800057D02*
X172785714Y-116752438D01*
X172785714Y-116752438D02*
X172880952Y-116704819D01*
X172880952Y-116704819D02*
X173119047Y-116704819D01*
X173119047Y-116704819D02*
X173214285Y-116752438D01*
X173214285Y-116752438D02*
X173261904Y-116800057D01*
X173261904Y-116800057D02*
X173309523Y-116895295D01*
X173309523Y-116895295D02*
X173309523Y-116990533D01*
X173309523Y-116990533D02*
X173261904Y-117133390D01*
X173261904Y-117133390D02*
X172690476Y-117704819D01*
X172690476Y-117704819D02*
X173309523Y-117704819D01*
X181666666Y-110204819D02*
X181666666Y-110919104D01*
X181666666Y-110919104D02*
X181619047Y-111061961D01*
X181619047Y-111061961D02*
X181523809Y-111157200D01*
X181523809Y-111157200D02*
X181380952Y-111204819D01*
X181380952Y-111204819D02*
X181285714Y-111204819D01*
X182666666Y-111204819D02*
X182095238Y-111204819D01*
X182380952Y-111204819D02*
X182380952Y-110204819D01*
X182380952Y-110204819D02*
X182285714Y-110347676D01*
X182285714Y-110347676D02*
X182190476Y-110442914D01*
X182190476Y-110442914D02*
X182095238Y-110490533D01*
X174833333Y-112954819D02*
X174500000Y-112478628D01*
X174261905Y-112954819D02*
X174261905Y-111954819D01*
X174261905Y-111954819D02*
X174642857Y-111954819D01*
X174642857Y-111954819D02*
X174738095Y-112002438D01*
X174738095Y-112002438D02*
X174785714Y-112050057D01*
X174785714Y-112050057D02*
X174833333Y-112145295D01*
X174833333Y-112145295D02*
X174833333Y-112288152D01*
X174833333Y-112288152D02*
X174785714Y-112383390D01*
X174785714Y-112383390D02*
X174738095Y-112431009D01*
X174738095Y-112431009D02*
X174642857Y-112478628D01*
X174642857Y-112478628D02*
X174261905Y-112478628D01*
X175785714Y-112954819D02*
X175214286Y-112954819D01*
X175500000Y-112954819D02*
X175500000Y-111954819D01*
X175500000Y-111954819D02*
X175404762Y-112097676D01*
X175404762Y-112097676D02*
X175309524Y-112192914D01*
X175309524Y-112192914D02*
X175214286Y-112240533D01*
X182583333Y-89359580D02*
X182535714Y-89407200D01*
X182535714Y-89407200D02*
X182392857Y-89454819D01*
X182392857Y-89454819D02*
X182297619Y-89454819D01*
X182297619Y-89454819D02*
X182154762Y-89407200D01*
X182154762Y-89407200D02*
X182059524Y-89311961D01*
X182059524Y-89311961D02*
X182011905Y-89216723D01*
X182011905Y-89216723D02*
X181964286Y-89026247D01*
X181964286Y-89026247D02*
X181964286Y-88883390D01*
X181964286Y-88883390D02*
X182011905Y-88692914D01*
X182011905Y-88692914D02*
X182059524Y-88597676D01*
X182059524Y-88597676D02*
X182154762Y-88502438D01*
X182154762Y-88502438D02*
X182297619Y-88454819D01*
X182297619Y-88454819D02*
X182392857Y-88454819D01*
X182392857Y-88454819D02*
X182535714Y-88502438D01*
X182535714Y-88502438D02*
X182583333Y-88550057D01*
X182964286Y-88550057D02*
X183011905Y-88502438D01*
X183011905Y-88502438D02*
X183107143Y-88454819D01*
X183107143Y-88454819D02*
X183345238Y-88454819D01*
X183345238Y-88454819D02*
X183440476Y-88502438D01*
X183440476Y-88502438D02*
X183488095Y-88550057D01*
X183488095Y-88550057D02*
X183535714Y-88645295D01*
X183535714Y-88645295D02*
X183535714Y-88740533D01*
X183535714Y-88740533D02*
X183488095Y-88883390D01*
X183488095Y-88883390D02*
X182916667Y-89454819D01*
X182916667Y-89454819D02*
X183535714Y-89454819D01*
D13*
%TO.C,U1*%
X156850000Y-95500000D02*
X156850000Y-104500000D01*
X156850000Y-95500000D02*
X158150000Y-95500000D01*
X156850000Y-104500000D02*
X158150000Y-104500000D01*
X158150000Y-91000000D02*
X158150000Y-95500000D01*
X158150000Y-104500000D02*
X158150000Y-109000000D01*
X180850000Y-91000000D02*
X158150000Y-91000000D01*
X180850000Y-91000000D02*
X180850000Y-109000000D01*
X180850000Y-109000000D02*
X158150000Y-109000000D01*
D14*
%TO.C,C1*%
X169490000Y-114609420D02*
X169490000Y-114890580D01*
X170510000Y-114609420D02*
X170510000Y-114890580D01*
%TO.C,U2*%
X171340000Y-115460000D02*
X171340000Y-114050000D01*
X173660000Y-115450000D02*
X173660000Y-114050000D01*
X171390000Y-115830000D02*
X171060000Y-116070000D01*
X171060000Y-115590000D01*
X171390000Y-115830000D01*
G36*
X171390000Y-115830000D02*
G01*
X171060000Y-116070000D01*
X171060000Y-115590000D01*
X171390000Y-115830000D01*
G37*
%TO.C,J1*%
X182940000Y-100940000D02*
X182940000Y-101960000D01*
X182940000Y-101960000D02*
X184540000Y-101960000D01*
X182940000Y-110040000D02*
X184540000Y-110040000D01*
X182940000Y-111060000D02*
X182940000Y-110040000D01*
X184540000Y-101960000D02*
X184540000Y-103240000D01*
X184540000Y-108760000D02*
X181650000Y-108760000D01*
X184540000Y-110040000D02*
X184540000Y-108760000D01*
X187190000Y-100940000D02*
X182940000Y-100940000D01*
X187190000Y-111060000D02*
X182940000Y-111060000D01*
X190760000Y-109340000D02*
X190760000Y-102660000D01*
%TO.C,R1*%
X174477500Y-114987258D02*
X174477500Y-114512742D01*
X175522500Y-114987258D02*
X175522500Y-114512742D01*
%TO.C,C2*%
X181890000Y-89890000D02*
X184740000Y-89890000D01*
X181890000Y-97545563D02*
X181890000Y-89890000D01*
X182954437Y-98610000D02*
X181890000Y-97545563D01*
X182954437Y-98610000D02*
X184740000Y-98610000D01*
X183240000Y-99350000D02*
X184240000Y-99350000D01*
X183740000Y-99850000D02*
X183740000Y-98850000D01*
X189545563Y-98610000D02*
X187760000Y-98610000D01*
X189545563Y-98610000D02*
X190610000Y-97545563D01*
X190610000Y-89890000D02*
X187760000Y-89890000D01*
X190610000Y-97545563D02*
X190610000Y-89890000D01*
%TD*%
%LPC*%
D15*
%TO.C,U1*%
X177380000Y-92380000D03*
X174840000Y-92380000D03*
X172300000Y-92380000D03*
X169760000Y-92380000D03*
X164680000Y-92380000D03*
X167220000Y-92380000D03*
X159600000Y-107620000D03*
X159600000Y-92380000D03*
X162140000Y-107620000D03*
X164680000Y-107620000D03*
X167220000Y-107620000D03*
X169760000Y-107620000D03*
X172300000Y-107620000D03*
X174840000Y-107620000D03*
X177380000Y-107620000D03*
X162140000Y-92380000D03*
%TD*%
D16*
%TO.C,C1*%
X170000000Y-113975000D03*
X170000000Y-115525000D03*
%TD*%
D17*
%TO.C,H1*%
X160000000Y-85000000D03*
%TD*%
%TO.C,H2*%
X188000000Y-85000000D03*
%TD*%
D18*
%TO.C,U2*%
X171850000Y-115700000D03*
X172500000Y-115700000D03*
X173150000Y-115700000D03*
X173150000Y-113800000D03*
X171850000Y-113800000D03*
%TD*%
D19*
%TO.C,J1*%
X183400000Y-108000000D03*
X183400000Y-106000000D03*
X183400000Y-104000000D03*
D20*
X189150000Y-110350000D03*
X189150000Y-101650000D03*
%TD*%
D21*
%TO.C,R1*%
X175000000Y-115575000D03*
X175000000Y-113925000D03*
%TD*%
D22*
%TO.C,C2*%
X186250000Y-97950000D03*
X186250000Y-90550000D03*
%TD*%
D17*
%TO.C,H4*%
X160000000Y-115000000D03*
%TD*%
%TO.C,H3*%
X188000000Y-115000000D03*
%TD*%
%LPD*%
M02*
